<svg width="66" height="78" viewBox="0 0 66 78" fill="none" xmlns="http://www.w3.org/2000/svg">
<path fill-rule="evenodd" clip-rule="evenodd" d="M42.7873 27.6738C41.3575 29.1122 33.725 36.8561 31.3103 39.2683C30.6631 39.9155 29.6139 39.9155 28.9676 39.2683L22.5857 32.8873C21.9385 32.2393 21.9385 31.1875 22.5857 30.5394C22.9089 30.2146 23.3332 30.0534 23.7575 30.0534C24.1818 30.0534 24.613 30.2146 24.9362 30.5394L29.2702 34.8769C29.4999 35.1057 29.8093 35.2335 30.1325 35.2335C30.4634 35.2335 30.772 35.1023 31.0017 34.8726L40.4377 25.338C40.7472 25.0259 41.1638 24.8519 41.6018 24.8511C41.6087 24.8511 41.6087 24.8511 41.6087 24.8511C42.0544 24.8511 42.4642 25.0216 42.7805 25.3328C43.4268 25.9749 43.4268 27.0249 42.7873 27.6738ZM41.5941 22.4132C40.502 22.4158 39.4743 22.8478 38.7053 23.6227L30.1316 32.2881L26.6608 28.8156C25.0579 27.2169 22.4571 27.2169 20.861 28.8156C19.2658 30.4143 19.2658 33.0142 20.861 34.6111L27.2429 40.9913C28.0409 41.7919 29.0901 42.1905 30.1394 42.1905C31.1886 42.1905 32.2378 41.7919 33.0358 40.9913C35.4583 38.574 43.0976 30.8266 44.5206 29.3899C46.1021 27.7887 46.0944 25.1931 44.4992 23.6047C43.7217 22.8324 42.687 22.4072 41.5941 22.4132ZM32.6827 50.4985C42.7153 50.4985 50.8793 42.3354 50.8793 32.3036C50.8793 22.2709 42.7153 14.1078 32.6827 14.1078C22.65 14.1078 14.486 22.2709 14.486 32.3036C14.486 42.3345 22.65 50.4985 32.6827 50.4985ZM32.6827 11.6691C21.3059 11.6691 12.0499 20.926 12.0499 32.3027C12.0499 43.6803 21.3059 52.9355 32.6827 52.9355C44.0594 52.9355 53.3155 43.6803 53.3155 32.3027C53.3155 20.926 44.0594 11.6691 32.6827 11.6691ZM60.0788 35.5926L62.3349 31.1361C63.4416 28.9365 63.0035 26.4283 61.2068 24.7422L57.5629 21.3254C56.3988 20.2333 55.6582 18.9458 55.2922 17.3909L54.1564 12.5288C53.5889 10.1304 51.6413 8.49313 49.1829 8.35598L44.1957 8.0791C42.6005 7.99081 41.2058 7.48335 39.9269 6.52414L35.9237 3.53166C34.9388 2.79533 33.8107 2.42587 32.6827 2.42587C31.5546 2.42587 30.4265 2.79533 29.4339 3.53166L25.4385 6.52414C24.1595 7.48249 22.7649 7.98996 21.1696 8.0791L16.1824 8.35598C13.7248 8.49313 11.7773 10.1312 11.209 12.5288L10.0732 17.3909C9.70715 18.9458 8.96653 20.2333 7.80246 21.3254L4.1585 24.7422C2.36181 26.4275 1.92378 28.9365 3.03043 31.1361L5.28658 35.5926C6.00577 37.0173 6.26378 38.4805 6.07006 40.0672L5.4803 45.0244C5.18543 47.47 6.46522 49.6756 8.72909 50.6459L13.3142 52.6115C14.7878 53.2407 15.9227 54.1956 16.7996 55.532L19.5307 59.7108C20.8816 61.7724 23.2749 62.6433 25.6322 61.9309L30.4111 60.4866C31.9343 60.0254 33.4224 60.0254 34.9534 60.4866L39.7331 61.9309C42.0904 62.6441 44.4837 61.7724 45.8347 59.7108L48.5657 55.532C49.4426 54.1956 50.5784 53.2407 52.0511 52.6115L56.6362 50.6459C58.9001 49.6756 60.1791 47.47 59.885 45.0244L59.2884 40.0672C59.1007 38.4805 59.3596 37.0164 60.0788 35.5926ZM50.0958 68.7422C49.5926 68.6557 49.0895 68.8905 48.8314 69.3311L46.0284 74.1495L41.5873 64.6037C44.0877 64.5223 46.4381 63.245 47.8757 61.0463L50.0247 57.7581L55.587 69.7023L50.0958 68.7422ZM19.5092 74.1495L16.7139 69.3311C16.455 68.8905 15.9518 68.6565 15.4487 68.7422L9.95831 69.7023L15.4418 57.9158L17.4897 61.0455C18.9632 63.2947 21.3916 64.5788 23.9504 64.6054L19.5092 74.1495ZM64.5053 32.235C66.0937 29.0968 65.4397 25.3714 62.8741 22.9644L59.2301 19.5476C58.4038 18.7735 57.922 17.9369 57.6632 16.8337L56.5274 11.9716C55.7225 8.54885 52.826 6.11697 49.3192 5.92153L44.332 5.64551C43.2039 5.58294 42.291 5.25206 41.385 4.5723L37.3895 1.58153C34.5728 -0.527178 30.7917 -0.527178 27.9749 1.58153L23.9795 4.5723C23.0743 5.25206 22.1614 5.58294 21.0325 5.64551L16.0453 5.92325C12.5385 6.11783 9.642 8.54971 8.83709 11.9734L7.70131 16.8354C7.44243 17.9386 6.95383 18.7752 6.13434 19.5493L2.49039 22.9661C-0.0752076 25.374 -0.729251 29.0985 0.85914 32.2367L3.10843 36.6916C3.61846 37.7031 3.79076 38.6546 3.65447 39.7783L3.05786 44.7355C2.64126 48.2278 4.53138 51.5031 7.76559 52.8875L12.3576 54.8531C12.9036 55.0879 13.3708 55.3725 13.7737 55.7257L6.75924 70.791C6.57237 71.2016 6.62295 71.6867 6.89554 72.0459C7.17584 72.4076 7.62844 72.5842 8.07419 72.5062L15.0312 71.2898L18.574 77.3931C18.7969 77.7694 19.1989 78 19.6301 78C19.6447 78 19.6661 78 19.6875 77.9983C20.1401 77.9786 20.543 77.7068 20.7367 77.2954L26.8743 64.1005L31.114 62.8207C32.1992 62.4933 33.1627 62.4933 34.2479 62.8207L38.6891 64.1631L44.8052 77.2954C44.992 77.7068 45.4018 77.9786 45.8544 77.9983C45.8758 78 45.8904 78 45.9118 78C46.343 78 46.7459 77.7703 46.961 77.3931L50.5116 71.2898L57.4609 72.5062C57.9135 72.5816 58.3661 72.4068 58.6395 72.0459C58.9198 71.6867 58.9695 71.2016 58.7758 70.791L51.7108 55.6194C52.0914 55.3151 52.5157 55.0639 53.0043 54.8531L57.5963 52.8875C60.8305 51.5031 62.7206 48.2269 62.3041 44.7355L61.7074 39.7783C61.5711 38.6546 61.7434 37.7031 62.2535 36.6916L64.5053 32.235Z" fill="#D78D00"/>
</svg>
