<svg width="50" height="43" viewBox="0 0 50 43" fill="none" xmlns="http://www.w3.org/2000/svg">
<path d="M25.5305 18.8991C28.1831 18.8991 30.3714 16.7108 30.3714 14.0583C30.3714 11.4057 28.1831 9.21741 25.5305 9.21741C22.878 9.21741 20.6897 11.4057 20.6897 14.0583C20.6897 16.7108 22.8117 18.8991 25.5305 18.8991ZM25.5305 11.8699C26.7242 11.8699 27.7189 12.8646 27.7189 14.0583C27.7189 15.2519 26.7242 16.2466 25.5305 16.2466C24.3369 16.2466 23.3422 15.2519 23.3422 14.0583C23.3422 12.8646 24.2706 11.8699 25.5305 11.8699Z" fill="white"/>
<path d="M19.8938 33.6208H31.167C31.8964 33.6208 32.4933 33.024 32.4933 32.2945V25.7296C32.4933 22.4139 29.7744 19.6951 26.4588 19.6951H24.5357C21.2201 19.6951 18.5012 22.4139 18.5012 25.7296V32.2945C18.5675 33.024 19.1643 33.6208 19.8938 33.6208ZM21.2201 25.7296C21.2201 23.8728 22.7453 22.3476 24.602 22.3476H26.5251C28.3819 22.3476 29.9071 23.8728 29.9071 25.7296V30.9683H21.2864V25.7296H21.2201Z" fill="white"/>
<path d="M41.4455 7.82493C42.175 7.82493 42.7718 7.22811 42.7718 6.49867V5.83554C42.7718 5.10609 42.175 4.50928 41.4455 4.50928C40.7161 4.50928 40.1193 5.10609 40.1193 5.83554V6.49867C40.1193 7.22811 40.7161 7.82493 41.4455 7.82493Z" fill="white"/>
<path d="M41.4455 31.1671C42.175 31.1671 42.7718 30.5703 42.7718 29.8409V28.5146C42.7718 27.7852 42.175 27.1884 41.4455 27.1884C40.7161 27.1884 40.1193 27.7852 40.1193 28.5146V29.8409C40.1193 30.5703 40.7161 31.1671 41.4455 31.1671Z" fill="white"/>
<path d="M41.4455 23.4085C42.175 23.4085 42.7718 22.8117 42.7718 22.0822V20.7559C42.7718 20.0265 42.175 19.4297 41.4455 19.4297C40.7161 19.4297 40.1193 20.0265 40.1193 20.7559V22.0822C40.1193 22.8117 40.7161 23.4085 41.4455 23.4085Z" fill="white"/>
<path d="M41.4455 15.5835C42.175 15.5835 42.7718 14.9867 42.7718 14.2573V12.931C42.7718 12.2016 42.175 11.6047 41.4455 11.6047C40.7161 11.6047 40.1193 12.2016 40.1193 12.931V14.2573C40.1193 14.9867 40.7161 15.5835 41.4455 15.5835Z" fill="white"/>
<path d="M41.4455 38.3288C42.175 38.3288 42.7718 37.732 42.7718 37.0026V36.3394C42.7718 35.61 42.175 35.0132 41.4455 35.0132C40.7161 35.0132 40.1193 35.61 40.1193 36.3394V37.0026C40.1193 37.732 40.7161 38.3288 41.4455 38.3288Z" fill="white"/>
<path d="M0 32.3607C0 32.9576 0.397878 33.4881 0.994695 33.6207V34.1512C0.994695 38.9257 4.84085 42.7719 9.61539 42.7719H41.3793C46.1539 42.7719 50 38.9257 50 34.1512V8.62069C50 3.84615 46.1539 0 41.3793 0H9.61539C4.84085 0 0.994695 3.84615 0.994695 8.62069V9.15119C0.397878 9.28382 0 9.81432 0 10.4111C0 11.008 0.397878 11.5385 0.994695 11.6711V20.0265C0.397878 20.1592 0 20.6897 0 21.2865C0 21.8833 0.397878 22.4138 0.994695 22.5464V30.9019C0.397878 31.2334 0 31.7639 0 32.3607ZM9.61539 2.65252H41.3793C44.695 2.65252 47.3475 5.30504 47.3475 8.62069V34.1512C47.3475 37.4668 44.695 40.1194 41.3793 40.1194H9.61539C6.29973 40.1194 3.64721 37.4668 3.64721 34.1512V33.6207H6.6313C7.29443 35.2122 8.95226 36.4058 10.809 36.4058C13.3289 36.4058 15.3183 34.3501 15.3183 31.8966C15.3183 29.3767 13.2626 27.3873 10.809 27.3873C8.62069 27.3873 6.76393 28.9788 6.36605 31.0345H3.64721V22.7454H6.49867C7.09549 24.6021 8.81963 25.9284 10.809 25.9284C13.3289 25.9284 15.3183 23.8727 15.3183 21.4191C15.3183 18.8992 13.2626 16.9098 10.809 16.9098C8.75332 16.9098 7.02918 18.2361 6.49867 20.0928H3.64721V11.8037H6.36605C6.76393 13.8594 8.62069 15.4509 10.809 15.4509C13.3289 15.4509 15.3183 13.3952 15.3183 10.9416C15.3183 8.42175 13.2626 6.43236 10.809 6.43236C8.95226 6.43236 7.29443 7.55968 6.6313 9.21751H3.64721V8.687C3.64721 5.37135 6.29973 2.65252 9.61539 2.65252ZM8.95226 31.8966C8.95226 30.8355 9.81432 30.0398 10.809 30.0398C11.8037 30.0398 12.6658 30.9019 12.6658 31.8966C12.6658 32.9576 11.8037 33.7533 10.809 33.7533C9.94695 33.7533 9.15119 33.1565 8.95226 32.2944C8.95226 32.1618 8.95226 32.0955 8.88594 31.9629C8.95226 32.0292 8.95226 31.9629 8.95226 31.8966ZM8.95226 21.1538C9.08488 20.2255 9.88064 19.5623 10.809 19.5623C11.87 19.5623 12.6658 20.4244 12.6658 21.4191C12.6658 22.4801 11.8037 23.2759 10.809 23.2759C9.88064 23.2759 9.08488 22.5464 8.95226 21.6844C8.95226 21.618 8.95226 21.4854 8.95226 21.4191C8.95226 21.3528 9.01857 21.2202 8.95226 21.1538ZM8.95226 10.809C8.95226 10.6764 9.01857 10.6101 9.01857 10.4775C9.21751 9.6817 9.94695 9.01857 10.8753 9.01857C11.9363 9.01857 12.7321 9.88064 12.7321 10.8753C12.7321 11.9363 11.87 12.7321 10.8753 12.7321C9.88064 12.7321 9.01857 11.87 9.01857 10.8753C8.95226 10.8753 8.95226 10.809 8.95226 10.809Z" fill="white"/>
</svg>
