<svg width="29" height="50" viewBox="0 0 29 50" fill="none" xmlns="http://www.w3.org/2000/svg">
<path d="M14.2857 0C13.631 0 13.0952 0.535714 13.0952 1.19048V5.95238H8.33333C7.9881 5.95238 7.65476 6.10714 7.42857 6.36905L0.285714 14.7024L0.202381 14.8333C0.166667 14.881 0.119047 14.9524 0.083333 15.0595C0.0476187 15.1548 0.035714 15.2381 0.035714 15.2619L0 47.0238C0 48.6667 1.33333 50 2.97619 50H25.5952C27.2381 50 28.5714 48.6667 28.5714 47.0238V15.4762L28.4881 15.0595C28.4524 14.9524 28.4048 14.881 28.3929 14.881L21.1429 6.36905C20.9167 6.10714 20.5833 5.95238 20.2381 5.95238H15.4762V1.19048C15.4762 0.535714 14.9405 0 14.2857 0ZM14.2857 13.0952C14.9405 13.0952 15.4762 13.631 15.4762 14.2857C15.4762 14.9405 14.9405 15.4762 14.2857 15.4762C13.631 15.4762 13.0952 14.9405 13.0952 14.2857C13.0952 13.631 13.631 13.0952 14.2857 13.0952ZM26.1905 47.0238C26.1905 47.3571 25.9286 47.619 25.5952 47.619H2.97619C2.64286 47.619 2.38095 47.3571 2.38095 47.0238V45.2381H26.1905V47.0238ZM19.6905 8.33333L26.1905 15.9167V42.8571H2.38095V15.9167L8.88095 8.33333H13.0952V10.9167C11.6905 11.4167 10.7143 12.7619 10.7143 14.2857C10.7143 16.25 12.3214 17.8571 14.2857 17.8571C16.25 17.8571 17.8571 16.25 17.8571 14.2857C17.8571 12.7619 16.881 11.4167 15.4762 10.9167V8.33333H19.6905Z" fill="white"/>
<path d="M13.0952 27.381V27.4406C11.738 27.7144 10.7142 28.9167 10.7142 30.3572C10.7142 32.0001 12.0476 33.3334 13.6904 33.3334H14.8809C15.2142 33.3334 15.4761 33.5953 15.4761 33.9286C15.4761 34.262 15.2142 34.5239 14.8809 34.5239H11.9047C11.2499 34.5239 10.7142 35.0596 10.7142 35.7144C10.7142 36.3691 11.2499 36.9048 11.9047 36.9048H13.0952C13.0952 37.5596 13.6309 38.0953 14.2857 38.0953C14.9404 38.0953 15.4761 37.5596 15.4761 36.9048V36.8453C16.8333 36.5715 17.8571 35.3691 17.8571 33.9286C17.8571 32.2858 16.5238 30.9525 14.8809 30.9525H13.6904C13.3571 30.9525 13.0952 30.6906 13.0952 30.3572C13.0952 30.0239 13.3571 29.762 13.6904 29.762H16.6666C17.3214 29.762 17.8571 29.2263 17.8571 28.5715C17.8571 27.9167 17.3214 27.381 16.6666 27.381H15.4761C15.4761 26.7263 14.9404 26.1906 14.2857 26.1906C13.6309 26.1906 13.0952 26.7263 13.0952 27.381Z" fill="white"/>
<path d="M4.76196 32.1428C4.76196 37.3928 9.03577 41.6666 14.2858 41.6666C19.5358 41.6666 23.8096 37.3928 23.8096 32.1428C23.8096 26.8928 19.5358 22.619 14.2858 22.619C9.03577 22.619 4.76196 26.8928 4.76196 32.1428ZM21.4286 32.1428C21.4286 36.0833 18.2262 39.2857 14.2858 39.2857C10.3453 39.2857 7.14292 36.0833 7.14292 32.1428C7.14292 28.2024 10.3453 25 14.2858 25C18.2262 25 21.4286 28.2024 21.4286 32.1428Z" fill="white"/>
</svg>
