<svg width="50" height="50" viewBox="0 0 50 50" fill="none" xmlns="http://www.w3.org/2000/svg">
<path d="M11.6526 0C5.22743 0 0 5.22743 0 11.6531C0 18.0788 5.22743 23.3062 11.6526 23.3062C18.0782 23.3062 23.3062 18.0788 23.3062 11.6531C23.3057 5.22743 18.0782 0 11.6526 0ZM11.6526 20.9158C6.54512 20.9158 2.3904 16.7605 2.3904 11.6531C2.3904 6.54567 6.54512 2.39095 11.6526 2.39095C16.76 2.39095 20.9153 6.54567 20.9153 11.6531C20.9153 16.7605 16.76 20.9158 11.6526 20.9158Z" fill="white"/>
<path d="M38.3469 23.3062C41.46 23.3062 44.386 22.0941 46.5864 19.8931C48.7873 17.6922 50 14.7657 50 11.6531C50 8.54054 48.7873 5.61462 46.5869 3.41311C44.386 1.21214 41.4589 0 38.3469 0C35.2349 0 32.3079 1.2127 30.1069 3.41311C25.5633 7.95669 25.5633 15.3495 30.1069 19.8931C32.3079 22.0941 35.2343 23.3062 38.3469 23.3062ZM29.2825 13.5347L40.2329 2.58316C40.8945 2.71926 41.5361 2.92814 42.1478 3.20367L29.9003 15.4512C29.6231 14.8323 29.417 14.1896 29.2825 13.5347ZM44.2321 4.50025C44.4621 4.68969 44.6837 4.89023 44.897 5.10355C45.1098 5.31631 45.3109 5.53852 45.4998 5.76795L32.4612 18.8065C32.2323 18.6171 32.0096 18.416 31.7974 18.2032C31.5829 17.9894 31.3829 17.7666 31.1946 17.5383L44.2321 4.50025ZM47.4169 9.76657L36.4598 20.7231C35.7982 20.587 35.1571 20.3775 34.5449 20.1025L46.7963 7.8517C47.0713 8.46388 47.2802 9.10495 47.4169 9.76657ZM44.8965 18.2027C43.4832 19.6159 41.6934 20.5159 39.754 20.8092L47.503 13.0602C47.2091 15.0001 46.3097 16.79 44.8965 18.2027ZM31.7974 5.10355C33.21 3.69031 34.9999 2.79037 36.9392 2.49706L29.1975 10.2382C29.4864 8.35777 30.3513 6.54901 31.7974 5.10355Z" fill="white"/>
<path d="M11.6526 26.6938C5.22743 26.6938 0 31.9213 0 38.347C0 44.7726 5.22743 50.0001 11.6526 50.0001C18.0782 50.0001 23.3062 44.7726 23.3062 38.347C23.3062 31.9213 18.0782 26.6938 11.6526 26.6938ZM11.6526 47.6091C6.54512 47.6091 2.3904 43.4538 2.3904 38.3464C2.3904 33.239 6.54512 29.0837 11.6526 29.0837C16.76 29.0837 20.9153 33.239 20.9153 38.3464C20.9153 43.4538 16.76 47.6091 11.6526 47.6091Z" fill="white"/>
<path d="M38.347 26.6938C31.9213 26.6938 26.6938 31.9213 26.6938 38.347C26.6938 44.7726 31.9207 50.0001 38.347 50.0001C44.7715 50.0001 50.0001 44.7726 50.0001 38.347C50.0001 31.9213 44.7715 26.6938 38.347 26.6938ZM38.347 47.6091C33.2395 47.6091 29.0842 43.4538 29.0842 38.3464C29.0842 33.239 33.239 29.0837 38.347 29.0837C43.4538 29.0837 47.6097 33.239 47.6097 38.3464C47.6097 43.4538 43.4538 47.6091 38.347 47.6091Z" fill="white"/>
</svg>
