<svg width="50" height="51" viewBox="0 0 50 51" fill="none" xmlns="http://www.w3.org/2000/svg">
<path d="M47.4139 9.64919L34.2195 6.1711C34.2124 6.16924 34.2112 6.16853 34.204 6.16678C34.1814 6.1613 34.1616 6.15709 34.1387 6.15289C34.1181 6.14916 34.0989 6.1453 34.0782 6.14273C34.0555 6.13982 34.0335 6.13842 34.0107 6.1369C33.9879 6.13538 33.9688 6.13386 33.9475 6.13363C33.9263 6.1334 33.9027 6.13456 33.8801 6.13561C33.8574 6.13666 33.8373 6.13736 33.816 6.13958C33.7946 6.1418 33.7719 6.14554 33.7499 6.14916C33.7278 6.15277 33.7067 6.15581 33.6853 6.16083C33.679 6.16223 33.6728 6.1627 33.6666 6.1641L24.323 8.36643C23.7224 6.67604 22.7656 5.13445 21.5173 3.84608C21.4373 3.72908 21.3367 3.62755 21.2205 3.5464C18.9166 1.27387 15.8106 -0.000147417 12.5745 2.46678e-05C9.25112 -0.00655997 6.06084 1.30534 3.70351 3.64792C1.34617 5.99051 0.0142762 9.17248 0 12.4958C0.00443051 13.9407 0.252847 15.3745 0.734772 16.7367V43.1847C0.735115 43.9671 0.997407 44.7268 1.47982 45.3427C1.96223 45.9587 2.63699 46.3953 3.39648 46.5831L17.6623 50.1355C17.6623 50.1589 17.8288 50.1706 17.9242 50.1706C18.0159 50.1704 18.1073 50.1586 18.1962 50.1355L33.9294 46.2152L45.6453 49.3457C45.9425 49.4255 46.249 49.466 46.5568 49.4662C47.318 49.4655 48.057 49.2097 48.6559 48.7399C49.0799 48.4127 49.422 47.9915 49.6553 47.5094C49.8885 47.0273 50.0064 46.4976 49.9997 45.9621V13.036C50.0045 12.2648 49.7531 11.5139 49.2852 10.901C48.8172 10.2881 48.159 9.84781 47.4139 9.64919ZM5.32272 5.32298C6.2664 4.3706 7.3896 3.61484 8.62731 3.09945C9.86501 2.58406 11.1927 2.31926 12.5334 2.32038H12.567C13.8949 2.31953 15.2096 2.58411 16.4338 3.09855C17.658 3.613 18.767 4.36695 19.6957 5.31609C19.698 5.31842 19.7003 5.32426 19.7026 5.32659C20.6513 6.26778 21.4043 7.38736 21.9184 8.62085C22.4325 9.85434 22.6974 11.1774 22.698 12.5137C22.6985 13.85 22.4346 15.1732 21.9216 16.4072C21.4085 17.6411 20.6563 18.7613 19.7084 19.7032L12.433 26.8766L5.27112 19.7149C4.32903 18.7649 3.58348 17.6385 3.07714 16.4001C2.5708 15.1617 2.31359 13.8356 2.32024 12.4977C2.31855 11.1622 2.58323 9.83983 3.09877 8.60789C3.61431 7.37595 4.37038 6.2592 5.32272 5.32298ZM3.0696 43.1847V20.7385C3.18635 20.9511 3.42999 21.1587 3.62996 21.3609L11.6095 29.3477C11.7164 29.4556 11.8436 29.5413 11.9837 29.6C12.1239 29.6587 12.2742 29.6892 12.4261 29.6897C12.578 29.6903 12.7286 29.6609 12.8691 29.6032C13.0096 29.5455 13.1374 29.4607 13.2452 29.3535L16.7284 25.913V47.5087L3.93629 44.3175C3.68536 44.2539 3.46324 44.1074 3.30593 43.9018C3.14863 43.6963 3.06536 43.4436 3.0696 43.1847ZM19.0632 23.611L21.3495 21.3609C22.5171 20.2039 23.4437 18.8267 24.0756 17.3092C24.7075 15.7917 25.0322 14.1639 25.0308 12.5201C25.0236 11.8874 24.9686 11.2561 24.8663 10.6317L32.722 8.77468V44.097L19.0632 47.5087V23.611ZM47.6649 45.9621C47.6701 46.1395 47.6338 46.3155 47.5588 46.4763C47.4838 46.6371 47.3722 46.7781 47.233 46.888C47.0893 46.9977 46.9224 47.073 46.7451 47.108C46.5678 47.143 46.3848 47.1368 46.2103 47.09L35.0568 44.1127V8.81472L46.7967 11.9071C47.0457 11.973 47.266 12.1195 47.423 12.3237C47.5801 12.5279 47.6651 12.7784 47.6649 13.036V45.9621Z" fill="white"/>
<path d="M12.5412 18.2228C13.6973 18.2228 14.8275 17.88 15.7887 17.2377C16.75 16.5954 17.4992 15.6825 17.9417 14.6144C18.3841 13.5463 18.4998 12.371 18.2743 11.2371C18.0487 10.1032 17.492 9.06167 16.6745 8.24418C15.857 7.42669 14.8155 6.86997 13.6816 6.64442C12.5477 6.41888 11.3724 6.53464 10.3043 6.97706C9.2362 7.41948 8.32328 8.1687 7.68099 9.12996C7.03869 10.0912 6.69586 11.2214 6.69586 12.3775C6.69759 13.9272 7.314 15.413 8.40984 16.5089C9.50569 17.6047 10.9915 18.2211 12.5412 18.2228ZM12.5412 8.86694C13.2355 8.86694 13.9143 9.07283 14.4916 9.45857C15.0689 9.84431 15.5188 10.3926 15.7845 11.0341C16.0502 11.6755 16.1198 12.3814 15.9843 13.0623C15.8489 13.7433 15.5145 14.3688 15.0236 14.8598C14.5326 15.3508 13.9071 15.6851 13.2261 15.8206C12.5451 15.956 11.8393 15.8865 11.1978 15.6208C10.5563 15.3551 10.0081 14.9051 9.62233 14.3278C9.23658 13.7505 9.03069 13.0718 9.03069 12.3775C9.03159 11.4467 9.40174 10.5543 10.0599 9.89614C10.7181 9.23798 11.6105 8.86784 12.5412 8.86694Z" fill="white"/>
</svg>
