<svg width="38" height="50" viewBox="0 0 38 50" fill="none" xmlns="http://www.w3.org/2000/svg">
<path d="M2.08333 46.875V3.125C2.08333 2.84873 2.19308 2.58378 2.38843 2.38843C2.58378 2.19308 2.84873 2.08333 3.125 2.08333H28.125C28.4013 2.08333 28.6662 2.19308 28.8616 2.38843C29.0569 2.58378 29.1667 2.84873 29.1667 3.125V13.5417H31.25V3.125C31.25 2.2962 30.9208 1.50134 30.3347 0.915291C29.7487 0.32924 28.9538 0 28.125 0L3.125 0C2.2962 0 1.50134 0.32924 0.915291 0.915291C0.32924 1.50134 0 2.2962 0 3.125V46.875C0 47.7038 0.32924 48.4987 0.915291 49.0847C1.50134 49.6708 2.2962 50 3.125 50H18.75V47.9167H3.125C2.84873 47.9167 2.58378 47.8069 2.38843 47.6116C2.19308 47.4162 2.08333 47.1513 2.08333 46.875Z" fill="white"/>
<path d="M27.0834 8.33325H4.16675V10.4166H27.0834V8.33325Z" fill="white"/>
<path d="M15.6251 39.5833H4.16675V41.6666H15.6251V39.5833Z" fill="white"/>
<path d="M19.7917 4.16675H7.29175V6.25008H19.7917V4.16675Z" fill="white"/>
<path d="M23.9583 4.16675H21.875V6.25008H23.9583V4.16675Z" fill="white"/>
<path d="M16.6666 43.75H14.5833V45.8333H16.6666V43.75Z" fill="white"/>
<path d="M37.5 28.125C37.5019 25.6967 36.7964 23.3205 35.4698 21.2866C34.1433 19.2527 32.253 17.6492 30.03 16.6721C27.807 15.6949 25.3475 15.3864 22.952 15.7843C20.5565 16.1821 18.3288 17.2691 16.541 18.9123C14.7532 20.5556 13.4827 22.684 12.8848 25.0376C12.2869 27.3911 12.3875 29.8678 13.1742 32.1651C13.9609 34.4624 15.3997 36.4809 17.3149 37.9738C19.23 39.4667 21.5385 40.3695 23.9583 40.5719V42.9C23.3511 43.1147 22.8251 43.5117 22.4522 44.0368C22.0793 44.5619 21.8777 45.1893 21.875 45.8333V48.9583C21.875 49.2346 21.9847 49.4996 22.1801 49.6949C22.3754 49.8903 22.6404 50 22.9167 50H27.0833C27.3596 50 27.6246 49.8903 27.8199 49.6949C28.0153 49.4996 28.125 49.2346 28.125 48.9583V45.8333C28.1223 45.1893 27.9207 44.5619 27.5478 44.0368C27.1749 43.5117 26.6489 43.1147 26.0417 42.9V40.5719C29.1631 40.3085 32.0721 38.8836 34.1937 36.5789C36.3154 34.2743 37.4952 31.2575 37.5 28.125ZM14.5833 28.125C14.5833 26.0648 15.1943 24.0508 16.3389 22.3378C17.4835 20.6248 19.1103 19.2897 21.0137 18.5013C22.9171 17.7129 25.0116 17.5066 27.0322 17.9085C29.0528 18.3104 30.9089 19.3025 32.3657 20.7593C33.8225 22.2161 34.8146 24.0722 35.2165 26.0928C35.6184 28.1135 35.4122 30.2079 34.6237 32.1113C33.8353 34.0147 32.5002 35.6416 30.7872 36.7862C29.0742 37.9307 27.0602 38.5417 25 38.5417C22.2383 38.5386 19.5905 37.4402 17.6377 35.4874C15.6848 33.5345 14.5864 30.8868 14.5833 28.125ZM26.0417 47.9167H23.9583V45.8333C23.9583 45.5571 24.0681 45.2921 24.2634 45.0968C24.4588 44.9014 24.7237 44.7917 25 44.7917C25.2763 44.7917 25.5412 44.9014 25.7366 45.0968C25.9319 45.2921 26.0417 45.5571 26.0417 45.8333V47.9167Z" fill="white"/>
<path d="M24.9999 20.8333C23.0667 20.8355 21.2133 21.6044 19.8464 22.9714C18.4794 24.3383 17.7105 26.1917 17.7083 28.1249H19.7916C19.7932 26.7441 20.3425 25.4203 21.3189 24.4439C22.2953 23.4675 23.6191 22.9182 24.9999 22.9166V20.8333Z" fill="white"/>
<path d="M17.7084 14.5833V12.5H5.20841C4.93215 12.5 4.6672 12.6097 4.47185 12.8051C4.27649 13.0004 4.16675 13.2654 4.16675 13.5417V17.7083C4.16675 17.9846 4.27649 18.2496 4.47185 18.4449C4.6672 18.6403 4.93215 18.75 5.20841 18.75H12.5001V16.6667H6.25008V14.5833H17.7084Z" fill="white"/>
<path d="M6.25008 20.8333H4.16675V22.9166H6.25008V20.8333Z" fill="white"/>
<path d="M10.4166 20.8333H8.33325V22.9166H10.4166V20.8333Z" fill="white"/>
<path d="M10.4167 25H4.16675V27.0833H10.4167V25Z" fill="white"/>
<path d="M10.4167 29.1667H4.16675V31.2501H10.4167V29.1667Z" fill="white"/>
<path d="M10.4167 33.3333H4.16675V35.4166H10.4167V33.3333Z" fill="white"/>
</svg>
