<svg width="19" height="19" viewBox="0 0 19 19" fill="none" xmlns="http://www.w3.org/2000/svg">
<path d="M16.5 6.21001L11.167 2.06201C10.699 1.69792 10.123 1.50024 9.53003 1.50024C8.93707 1.50024 8.36104 1.69792 7.89303 2.06201L2.55903 6.21001C2.23847 6.4593 1.97912 6.77854 1.80078 7.14336C1.62245 7.50818 1.52984 7.90894 1.53003 8.31501V15.515C1.53003 16.0454 1.74074 16.5542 2.11582 16.9292C2.49089 17.3043 2.9996 17.515 3.53003 17.515H15.53C16.0605 17.515 16.5692 17.3043 16.9442 16.9292C17.3193 16.5542 17.53 16.0454 17.53 15.515V8.31501C17.53 7.49201 17.15 6.71501 16.5 6.21001Z" stroke="white" stroke-width="2" stroke-linecap="round" stroke-linejoin="round"/>
</svg>
