<svg width="1920" height="25" viewBox="0 0 1920 25" fill="none" xmlns="http://www.w3.org/2000/svg">
<mask id="mask0_177_11269" style="mask-type:luminance" maskUnits="userSpaceOnUse" x="-34" y="-197" width="500" height="222">
<path d="M466 -197H-34V24.6452H466V-197Z" fill="white"/>
</mask>
<g mask="url(#mask0_177_11269)">
<path d="M466 -197H-34V24.6452H466V-197Z" fill="white"/>
</g>
<mask id="mask1_177_11269" style="mask-type:luminance" maskUnits="userSpaceOnUse" x="-34" y="-197" width="500" height="222">
<path d="M466 -197H-34V24.6452H466V-197Z" fill="white"/>
</mask>
<g mask="url(#mask1_177_11269)">
<path d="M267.927 22.1523L261.709 28.3699V37.1838H252.896L246.678 43.4013L240.46 37.1838H231.647V28.3699L225.429 22.1523L231.647 15.9348V7.12089H240.46L246.678 0.90332L252.896 7.12089H261.709V15.9348L267.927 22.1523ZM258.669 34.1433V27.1058L263.623 22.1523L258.669 17.1988V10.1613H251.632L246.678 5.20781L241.725 10.1613H234.687V17.1988L229.734 22.1523L234.687 27.1058V34.1433H241.725L246.678 39.0968L251.632 34.1433H258.669Z" fill="#4A61AB"/>
<path d="M258.464 22.152L255.014 25.295V29.7361H250.128L246.678 32.879L243.262 29.7702L243.228 29.7361H238.342V25.295L234.892 22.152L238.342 19.0091V14.568H243.228L246.678 11.425L250.094 14.5338L250.128 14.568H255.014V19.0091L258.464 22.152Z" fill="#242466"/>
<path d="M245.619 19.6242L243.159 18.5994L244.15 21.0932L241.69 22.1522L244.15 23.1771L243.159 25.6709L245.619 24.6461L246.678 27.1058L247.703 24.6461L250.197 25.6709L249.172 23.1771L251.632 22.1522L249.172 21.0932L250.197 18.5994L247.703 19.6242L246.678 17.1646L245.619 19.6242Z" fill="#5189C9"/>
<path d="M215.689 15.1794L208.659 22.2087L215.689 29.2382L222.718 22.2088L215.689 15.1794Z" fill="#5189C9"/>
<path d="M277.625 15.111L270.595 22.1404L277.625 29.1698L284.654 22.1404L277.625 15.111Z" fill="#5189C9"/>
<path d="M205.956 22.1523L199.739 28.3699V37.1838H190.925L184.708 43.4013L178.49 37.1838H169.676V28.3699L163.458 22.1523L169.676 15.9348V7.12089H178.49L184.708 0.90332L190.925 7.12089H199.739V15.9348L205.956 22.1523ZM196.733 34.1433V27.1058L201.686 22.1523L196.733 17.1988V10.1613H189.695L184.742 5.20781L179.788 10.1613H172.751V17.1988L167.797 22.1523L172.751 27.1058V34.1433H179.788L184.742 39.0968L189.695 34.1433H196.733Z" fill="#4A61AB"/>
<path d="M196.528 22.152L193.077 25.295V29.7361H188.192L184.742 32.879L181.325 29.7702L181.291 29.7361H176.406V25.295L172.956 22.152L176.406 19.0091V14.568H181.291L184.742 11.425L188.158 14.5338L188.192 14.568H193.077V19.0091L196.528 22.152Z" fill="#242466"/>
<path d="M183.683 19.6242L181.223 18.5994L182.214 21.0932L179.754 22.1522L182.214 23.1771L181.223 25.6709L183.683 24.6461L184.742 27.1058L185.767 24.6461L188.26 25.6709L187.236 23.1771L189.695 22.1522L187.236 21.0932L188.26 18.5994L185.767 19.6242L184.742 17.1646L183.683 19.6242Z" fill="#5189C9"/>
<path d="M153.751 15.1757L146.722 22.2051L153.751 29.2345L160.781 22.2051L153.751 15.1757Z" fill="#5189C9"/>
<path d="M144.02 22.1523L137.803 28.3699V37.1838H128.989L122.771 43.4013L116.554 37.1838H107.74V28.3699L101.522 22.1523L107.74 15.9348V7.12089H116.554L122.771 0.90332L128.989 7.12089H137.803V15.9348L144.02 22.1523ZM134.796 34.1433V27.1058L139.75 22.1523L134.796 17.1988V10.1613H127.759L122.805 5.20781L117.852 10.1613H110.814V17.1988L105.827 22.1523L110.78 27.1058V34.1433H117.818L122.771 39.0968L127.725 34.1433H134.796Z" fill="#4A61AB"/>
<path d="M134.591 22.152L131.141 25.295V29.7361H126.256L122.805 32.879L119.389 29.7702L119.355 29.7361H114.47V25.295L111.019 22.152L114.47 19.0091V14.568H119.355L122.805 11.425L126.221 14.5338L126.256 14.568H131.141V19.0091L134.591 22.152Z" fill="#242466"/>
<path d="M121.746 19.6242L119.252 18.5994L120.277 21.0932L117.818 22.1522L120.277 23.1771L119.252 25.6709L121.746 24.6461L122.805 27.1058L123.83 24.6461L126.324 25.6709L125.299 23.1771L127.759 22.1522L125.299 21.0932L126.324 18.5994L123.83 19.6242L122.805 17.1646L121.746 19.6242Z" fill="#5189C9"/>
<path d="M91.8128 15.1711L84.7834 22.2004L91.8128 29.2299L98.8422 22.2005L91.8128 15.1711Z" fill="#5189C9"/>
<path d="M29.8657 -25.931L12.7631 -8.82837L29.8656 8.27422L46.9683 -8.82841L29.8657 -25.931Z" fill="#D78D00"/>
<path d="M29.8382 -20.7166L18.0017 -8.88013L29.8383 2.95643L41.6747 -8.88002L29.8382 -20.7166Z" fill="#4A61AB"/>
<path d="M91.8125 -25.9102L74.7098 -8.80762L91.8124 8.29497L108.915 -8.80765L91.8125 -25.9102Z" fill="#D78D00"/>
<path d="M91.7594 -20.742L79.923 -8.90552L91.7595 2.93104L103.596 -8.90541L91.7594 -20.742Z" fill="#4A61AB"/>
<path d="M153.739 -25.9259L136.637 -8.82324L153.739 8.27935L170.842 -8.82328L153.739 -25.9259Z" fill="#D78D00"/>
<path d="M153.709 -20.7144L141.873 -8.87793L153.709 2.95863L165.546 -8.87782L153.709 -20.7144Z" fill="#4A61AB"/>
<path d="M215.676 -25.9239L198.573 -8.82129L215.676 8.2813L232.779 -8.82133L215.676 -25.9239Z" fill="#D78D00"/>
<path d="M215.629 -20.7412L203.793 -8.90479L215.629 2.93177L227.466 -8.90467L215.629 -20.7412Z" fill="#4A61AB"/>
<path d="M277.624 -25.9015L260.522 -8.79883L277.624 8.30376L294.727 -8.79886L277.624 -25.9015Z" fill="#D78D00"/>
<path d="M277.58 -20.7119L265.744 -8.87549L277.58 2.96107L289.417 -8.87538L277.58 -20.7119Z" fill="#4A61AB"/>
<path d="M82.0838 22.1523L75.8663 28.3699V37.1838H67.0525L60.835 43.4013L54.6174 37.1838H45.8034V28.3699L39.5859 22.1523L45.8034 15.9348V7.12089H54.6174L60.835 0.90332L67.0525 7.12089H75.8663V15.9348L82.0838 22.1523ZM72.826 34.1433V27.1058L77.7794 22.1523L72.826 17.1988V10.1613H65.7885L60.835 5.20781L55.8814 10.1613H48.8439V17.1988L43.8904 22.1523L48.8439 27.1058V34.1433H55.8814L60.835 39.0968L65.7885 34.1433H72.826Z" fill="#4A61AB"/>
<path d="M72.621 22.152L69.1706 25.295V29.7361H64.2854L60.8349 32.879L57.4187 29.7702L57.3845 29.7361H52.4993V25.295L49.0489 22.152L52.4993 19.0091V14.568H57.3845L60.8349 11.425L64.2512 14.5338L64.2854 14.568H69.1706V19.0091L72.621 22.152Z" fill="#242466"/>
<path d="M59.8101 19.6242L57.3161 18.5994L58.3409 21.0932L55.8813 22.1522L58.3409 23.1771L57.3161 25.6709L59.8101 24.6461L60.8349 27.1058L61.894 24.6461L64.3535 25.6709L63.3629 23.1771L65.8225 22.1522L63.3629 21.0932L64.3535 18.5994L61.894 19.6242L60.8349 17.1646L59.8101 19.6242Z" fill="#5189C9"/>
<path d="M29.8523 15.1232L22.8229 22.1526L29.8523 29.182L36.8817 22.1526L29.8523 15.1232Z" fill="#5189C9"/>
<path d="M20.1475 22.1523L13.9299 28.3699V37.1838H5.11619L-1.10138 43.4013L-7.31895 37.1838H-16.1329V28.3699L-22.3505 22.1523L-16.1329 15.9348V7.12089H-7.31895L-1.10138 0.90332L5.11619 7.12089H13.9299V15.9348L20.1475 22.1523ZM10.8896 34.1433V27.1058L15.843 22.1523L10.8896 17.1988V10.1613H3.8522L-1.10138 5.20781L-6.05496 10.1613H-13.0924V17.1988L-18.046 22.1523L-13.0924 27.1058V34.1433H-6.05496L-1.10138 39.0968L3.8522 34.1433H10.8896Z" fill="#4A61AB"/>
<path d="M10.6846 22.152L7.23422 25.295V29.7361H2.34903L-1.1014 32.879L-4.51764 29.7702L-4.55183 29.7361H-9.43702V25.295L-12.8875 22.152L-9.43702 19.0091V14.568H-4.55183L-1.1014 11.425L2.31483 14.5338L2.34903 14.568H7.23422V19.0091L10.6846 22.152Z" fill="#242466"/>
<path d="M-2.12624 19.6242L-4.62023 18.5994L-3.5954 21.0932L-6.05499 22.1522L-3.5954 23.1771L-4.62023 25.6709L-2.12624 24.6461L-1.10141 27.1058L-0.042387 24.6461L2.4172 25.6709L1.42657 23.1771L3.88616 22.1522L1.42657 21.0932L2.4172 18.5994L-0.042387 19.6242L-1.10141 17.1646L-2.12624 19.6242Z" fill="#5189C9"/>
<path d="M463.438 15.124L456.409 22.1536L463.438 29.183L470.468 22.1535L463.438 15.124Z" fill="#5189C9"/>
<path d="M453.736 22.1516L447.519 28.3691V37.183H438.705L432.487 43.4006L426.269 37.183H417.456V28.3691L411.238 22.1516L417.456 15.934V7.12016H426.269L432.487 0.902588L438.705 7.12016H447.519V15.934L453.736 22.1516ZM444.478 34.1426V27.1051L449.432 22.1516L444.478 17.198V10.1606H437.441L432.487 5.20708L427.533 10.1606H420.496V17.198L415.542 22.1516L420.496 27.1051V34.1426H427.533L432.487 39.0961L437.441 34.1426H444.478Z" fill="#4A61AB"/>
<path d="M444.273 22.1515L440.823 25.2945V29.7356H435.938L432.487 32.8785L429.071 29.7697L429.037 29.7356H424.152V25.2945L420.701 22.1515L424.152 19.0086V14.5675H429.037L432.487 11.4246L435.903 14.5333L435.938 14.5675H440.823V19.0086L444.273 22.1515Z" fill="#242466"/>
<path d="M431.462 19.6235L428.969 18.5986L429.993 21.0925L427.534 22.1515L429.993 23.1764L428.969 25.6702L431.462 24.6453L432.487 27.105L433.546 24.6453L436.006 25.6702L435.015 23.1764L437.475 22.1515L435.015 21.0925L436.006 18.5986L433.546 19.6235L432.487 17.1638L431.462 19.6235Z" fill="#5189C9"/>
<path d="M401.53 15.1719L394.5 22.2014L401.53 29.2308L408.559 22.2013L401.53 15.1719Z" fill="#5189C9"/>
<path d="M339.553 -25.9112L322.451 -8.80859L339.553 8.29399L356.656 -8.80863L339.553 -25.9112Z" fill="#D78D00"/>
<path d="M339.527 -20.757L327.69 -8.92041L339.527 2.91615L351.363 -8.92045L339.527 -20.757Z" fill="#4A61AB"/>
<path d="M401.49 -25.909L384.387 -8.8064L401.49 8.29619L418.593 -8.80643L401.49 -25.909Z" fill="#D78D00"/>
<path d="M401.479 -20.7265L389.642 -8.88989L401.479 2.94666L413.315 -8.88993L401.479 -20.7265Z" fill="#4A61AB"/>
<path d="M463.463 -25.9099L446.36 -8.80737L463.463 8.29522L480.566 -8.80726L463.463 -25.9099Z" fill="#D78D00"/>
<path d="M463.396 -20.756L451.56 -8.91943L463.396 2.91712L475.233 -8.91947L463.396 -20.756Z" fill="#4A61AB"/>
<path d="M277.616 -25.9144L260.513 -8.81177L277.616 8.29082L294.719 -8.8118L277.616 -25.9144Z" fill="#D78D00"/>
<path d="M277.608 -20.7294L265.771 -8.89282L277.608 2.94373L289.444 -8.89286L277.608 -20.7294Z" fill="#4A61AB"/>
<path d="M391.8 22.1516L385.583 28.3691V37.183H376.769L370.551 43.4006L364.333 37.183H355.52V28.3691L349.302 22.1516L355.52 15.934V7.12016H364.333L370.551 0.902588L376.769 7.12016H385.583V15.934L391.8 22.1516ZM382.542 34.1426V27.1051L387.496 22.1516L382.542 17.198V10.1606H375.505L370.551 5.20708L365.597 10.1606H358.56V17.198L353.607 22.1516L358.56 27.1051V34.1426H365.597L370.551 39.0961L375.505 34.1426H382.542Z" fill="#4A61AB"/>
<path d="M382.337 22.1515L378.887 25.2945V29.7356H374.001L370.551 32.8785L367.135 29.7697L367.1 29.7356H362.215V25.2945L358.765 22.1515L362.215 19.0086V14.5675H367.1L370.551 11.4246L373.967 14.5333L374.001 14.5675H378.887V19.0086L382.337 22.1515Z" fill="#242466"/>
<path d="M369.526 19.6235L367.032 18.5986L368.057 21.0925L365.563 22.1515L368.057 23.1764L367.032 25.6702L369.526 24.6453L370.551 27.105L371.61 24.6453L374.07 25.6702L373.079 23.1764L375.539 22.1515L373.079 21.0925L374.07 18.5986L371.61 19.6235L370.551 17.1638L369.526 19.6235Z" fill="#5189C9"/>
<path d="M339.564 15.1182L332.534 22.1477L339.564 29.1771L346.593 22.1476L339.564 15.1182Z" fill="#5189C9"/>
<path d="M329.863 22.1516L323.646 28.3691V37.183H314.832L308.614 43.4006L302.397 37.183H293.583V28.3691L287.365 22.1516L293.583 15.934V7.12016H302.397L308.614 0.902588L314.832 7.12016H323.646V15.934L329.863 22.1516ZM320.605 34.1426V27.1051L325.559 22.1516L320.605 17.198V10.1606H313.568L308.614 5.20708L303.661 10.1606H296.623V17.198L291.67 22.1516L296.623 27.1051V34.1426H303.661L308.614 39.0961L313.568 34.1426H320.605Z" fill="#4A61AB"/>
<path d="M320.401 22.1515L316.95 25.2945V29.7356H312.065L308.615 32.8785L305.198 29.7697L305.164 29.7356H300.279V25.2945L296.828 22.1515L300.279 19.0086V14.5675H305.164L308.615 11.4246L312.031 14.5333L312.065 14.5675H316.95V19.0086L320.401 22.1515Z" fill="#242466"/>
<path d="M307.59 19.6235L305.096 18.5986L306.121 21.0925L303.627 22.1515L306.121 23.1764L305.096 25.6702L307.59 24.6453L308.614 27.105L309.639 24.6453L312.133 25.6702L311.108 23.1764L313.602 22.1515L311.108 21.0925L312.133 18.5986L309.639 19.6235L308.614 17.1638L307.59 19.6235Z" fill="#5189C9"/>
<path d="M277.626 15.1154L270.597 22.1448L277.626 29.1742L284.656 22.1448L277.626 15.1154Z" fill="#5189C9"/>
</g>
<mask id="mask2_177_11269" style="mask-type:luminance" maskUnits="userSpaceOnUse" x="462" y="-197" width="500" height="222">
<path d="M962 -197H462V24.6452H962V-197Z" fill="white"/>
</mask>
<g mask="url(#mask2_177_11269)">
<path d="M962 -197H462V24.6452H962V-197Z" fill="white"/>
</g>
<mask id="mask3_177_11269" style="mask-type:luminance" maskUnits="userSpaceOnUse" x="462" y="-197" width="500" height="222">
<path d="M962 -197H462V24.6452H962V-197Z" fill="white"/>
</mask>
<g mask="url(#mask3_177_11269)">
<path d="M763.927 22.1525L757.709 28.3701V37.184H748.895L742.678 43.4015L736.46 37.184H727.647V28.3701L721.429 22.1525L727.647 15.935V7.12114H736.46L742.678 0.903564L748.895 7.12114H757.709V15.935L763.927 22.1525ZM754.669 34.1436V27.1061L759.623 22.1525L754.669 17.199V10.1616H747.632L742.678 5.20805L737.725 10.1616H730.687V17.199L725.734 22.1525L730.687 27.1061V34.1436H737.725L742.678 39.0971L747.632 34.1436H754.669Z" fill="#4A61AB"/>
<path d="M754.464 22.1523L751.014 25.2952V29.7363H746.128L742.678 32.8792L739.262 29.7705L739.228 29.7363H734.342V25.2952L730.892 22.1523L734.342 19.0093V14.5682H739.228L742.678 11.4253L746.094 14.5341L746.128 14.5682H751.014V19.0093L754.464 22.1523Z" fill="#242466"/>
<path d="M741.619 19.6245L739.159 18.5996L740.15 21.0934L737.69 22.1525L740.15 23.1773L739.159 25.6712L741.619 24.6463L742.678 27.106L743.703 24.6463L746.197 25.6712L745.172 23.1773L747.632 22.1525L745.172 21.0934L746.197 18.5996L743.703 19.6245L742.678 17.1648L741.619 19.6245Z" fill="#5189C9"/>
<path d="M711.689 15.1796L704.659 22.209L711.689 29.2384L718.718 22.209L711.689 15.1796Z" fill="#5189C9"/>
<path d="M773.625 15.1112L766.595 22.1406L773.625 29.17L780.654 22.1407L773.625 15.1112Z" fill="#5189C9"/>
<path d="M701.956 22.1525L695.739 28.3701V37.184H686.925L680.708 43.4015L674.49 37.184H665.676V28.3701L659.458 22.1525L665.676 15.935V7.12114H674.49L680.708 0.903564L686.925 7.12114H695.739V15.935L701.956 22.1525ZM692.733 34.1436V27.1061L697.686 22.1525L692.733 17.199V10.1616H685.695L680.742 5.20805L675.788 10.1616H668.751V17.199L663.797 22.1525L668.751 27.1061V34.1436H675.788L680.742 39.0971L685.695 34.1436H692.733Z" fill="#4A61AB"/>
<path d="M692.528 22.1523L689.077 25.2952V29.7363H684.192L680.742 32.8792L677.325 29.7705L677.291 29.7363H672.406V25.2952L668.956 22.1523L672.406 19.0093V14.5682H677.291L680.742 11.4253L684.158 14.5341L684.192 14.5682H689.077V19.0093L692.528 22.1523Z" fill="#242466"/>
<path d="M679.683 19.6245L677.223 18.5996L678.214 21.0934L675.754 22.1525L678.214 23.1773L677.223 25.6712L679.683 24.6463L680.742 27.106L681.767 24.6463L684.26 25.6712L683.236 23.1773L685.695 22.1525L683.236 21.0934L684.26 18.5996L681.767 19.6245L680.742 17.1648L679.683 19.6245Z" fill="#5189C9"/>
<path d="M649.751 15.1759L642.722 22.2053L649.751 29.2347L656.781 22.2054L649.751 15.1759Z" fill="#5189C9"/>
<path d="M640.02 22.1525L633.803 28.3701V37.184H624.989L618.771 43.4015L612.554 37.184H603.74V28.3701L597.522 22.1525L603.74 15.935V7.12114H612.554L618.771 0.903564L624.989 7.12114H633.803V15.935L640.02 22.1525ZM630.796 34.1436V27.1061L635.75 22.1525L630.796 17.199V10.1616H623.759L618.805 5.20805L613.852 10.1616H606.814V17.199L601.827 22.1525L606.78 27.1061V34.1436H613.818L618.771 39.0971L623.725 34.1436H630.796Z" fill="#4A61AB"/>
<path d="M630.591 22.1523L627.141 25.2952V29.7363H622.256L618.805 32.8792L615.389 29.7705L615.355 29.7363H610.47V25.2952L607.019 22.1523L610.47 19.0093V14.5682H615.355L618.805 11.4253L622.221 14.5341L622.256 14.5682H627.141V19.0093L630.591 22.1523Z" fill="#242466"/>
<path d="M617.746 19.6245L615.252 18.5996L616.277 21.0934L613.818 22.1525L616.277 23.1773L615.252 25.6712L617.746 24.6463L618.805 27.106L619.83 24.6463L622.324 25.6712L621.299 23.1773L623.759 22.1525L621.299 21.0934L622.324 18.5996L619.83 19.6245L618.805 17.1648L617.746 19.6245Z" fill="#5189C9"/>
<path d="M587.813 15.1713L580.783 22.2007L587.813 29.2301L594.842 22.2007L587.813 15.1713Z" fill="#5189C9"/>
<path d="M525.866 -25.9307L508.763 -8.82812L525.866 8.27446L542.968 -8.82816L525.866 -25.9307Z" fill="#D78D00"/>
<path d="M525.838 -20.7163L514.002 -8.87988L525.838 2.95667L537.675 -8.87977L525.838 -20.7163Z" fill="#4A61AB"/>
<path d="M587.812 -25.9098L570.71 -8.80713L587.812 8.29546L604.915 -8.80717L587.812 -25.9098Z" fill="#D78D00"/>
<path d="M587.759 -20.7417L575.923 -8.90527L587.76 2.93128L599.596 -8.90516L587.759 -20.7417Z" fill="#4A61AB"/>
<path d="M649.739 -25.9256L632.637 -8.823L649.739 8.27959L666.842 -8.82303L649.739 -25.9256Z" fill="#D78D00"/>
<path d="M649.709 -20.7141L637.873 -8.87769L649.709 2.95887L661.546 -8.87757L649.709 -20.7141Z" fill="#4A61AB"/>
<path d="M711.676 -25.9237L694.573 -8.82104L711.676 8.28154L728.779 -8.82108L711.676 -25.9237Z" fill="#D78D00"/>
<path d="M711.629 -20.7407L699.793 -8.9043L711.629 2.93226L723.466 -8.90419L711.629 -20.7407Z" fill="#4A61AB"/>
<path d="M773.624 -25.9012L756.522 -8.79858L773.624 8.304L790.727 -8.79862L773.624 -25.9012Z" fill="#D78D00"/>
<path d="M773.58 -20.7117L761.744 -8.87524L773.58 2.96131L785.417 -8.87513L773.58 -20.7117Z" fill="#4A61AB"/>
<path d="M463.905 -25.9094L446.802 -8.80688L463.905 8.2957L481.007 -8.80677L463.905 -25.9094Z" fill="#D78D00"/>
<path d="M463.89 -20.7431L452.053 -8.90649L463.89 2.93006L475.726 -8.90653L463.89 -20.7431Z" fill="#4A61AB"/>
<path d="M578.084 22.1525L571.866 28.3701V37.184H563.053L556.835 43.4015L550.617 37.184H541.803V28.3701L535.586 22.1525L541.803 15.935V7.12114H550.617L556.835 0.903564L563.053 7.12114H571.866V15.935L578.084 22.1525ZM568.826 34.1436V27.1061L573.779 22.1525L568.826 17.199V10.1616H561.789L556.835 5.20805L551.881 10.1616H544.844V17.199L539.89 22.1525L544.844 27.1061V34.1436H551.881L556.835 39.0971L561.789 34.1436H568.826Z" fill="#4A61AB"/>
<path d="M568.621 22.1523L565.171 25.2952V29.7363H560.285L556.835 32.8792L553.419 29.7705L553.385 29.7363H548.499V25.2952L545.049 22.1523L548.499 19.0093V14.5682H553.385L556.835 11.4253L560.251 14.5341L560.285 14.5682H565.171V19.0093L568.621 22.1523Z" fill="#242466"/>
<path d="M555.81 19.6245L553.316 18.5996L554.341 21.0934L551.881 22.1525L554.341 23.1773L553.316 25.6712L555.81 24.6463L556.835 27.106L557.894 24.6463L560.354 25.6712L559.363 23.1773L561.822 22.1525L559.363 21.0934L560.354 18.5996L557.894 19.6245L556.835 17.1648L555.81 19.6245Z" fill="#5189C9"/>
<path d="M525.852 15.1234L518.823 22.1528L525.852 29.1823L532.882 22.1529L525.852 15.1234Z" fill="#5189C9"/>
<path d="M516.147 22.1525L509.93 28.3701V37.184H501.116L494.899 43.4015L488.681 37.184H479.867V28.3701L473.65 22.1525L479.867 15.935V7.12114H488.681L494.899 0.903564L501.116 7.12114H509.93V15.935L516.147 22.1525ZM506.89 34.1436V27.1061L511.843 22.1525L506.89 17.199V10.1616H499.852L494.899 5.20805L489.945 10.1616H482.908V17.199L477.954 22.1525L482.908 27.1061V34.1436H489.945L494.899 39.0971L499.852 34.1436H506.89Z" fill="#4A61AB"/>
<path d="M506.685 22.1523L503.234 25.2952V29.7363H498.349L494.899 32.8792L491.482 29.7705L491.448 29.7363H486.563V25.2952L483.113 22.1523L486.563 19.0093V14.5682H491.448L494.899 11.4253L498.315 14.5341L498.349 14.5682H503.234V19.0093L506.685 22.1523Z" fill="#242466"/>
<path d="M493.874 19.6245L491.38 18.5996L492.405 21.0934L489.945 22.1525L492.405 23.1773L491.38 25.6712L493.874 24.6463L494.899 27.106L495.958 24.6463L498.417 25.6712L497.427 23.1773L499.886 22.1525L497.427 21.0934L498.417 18.5996L495.958 19.6245L494.899 17.1648L493.874 19.6245Z" fill="#5189C9"/>
<path d="M463.916 15.1199L456.886 22.1494L463.916 29.1788L470.945 22.1493L463.916 15.1199Z" fill="#5189C9"/>
<path d="M959.438 15.124L952.409 22.1536L959.438 29.183L966.468 22.1535L959.438 15.124Z" fill="#5189C9"/>
<path d="M949.736 22.1516L943.519 28.3691V37.183H934.705L928.487 43.4006L922.269 37.183H913.455V28.3691L907.238 22.1516L913.455 15.934V7.12016H922.269L928.487 0.902588L934.705 7.12016H943.519V15.934L949.736 22.1516ZM940.478 34.1426V27.1051L945.432 22.1516L940.478 17.198V10.1606H933.441L928.487 5.20708L923.533 10.1606H916.496V17.198L911.542 22.1516L916.496 27.1051V34.1426H923.533L928.487 39.0961L933.441 34.1426H940.478Z" fill="#4A61AB"/>
<path d="M940.273 22.1515L936.823 25.2945V29.7356H931.938L928.487 32.8785L925.071 29.7697L925.037 29.7356H920.152V25.2945L916.701 22.1515L920.152 19.0086V14.5675H925.037L928.487 11.4246L931.903 14.5333L931.938 14.5675H936.823V19.0086L940.273 22.1515Z" fill="#242466"/>
<path d="M927.462 19.6235L924.969 18.5986L925.993 21.0925L923.534 22.1515L925.993 23.1764L924.969 25.6702L927.462 24.6453L928.487 27.105L929.546 24.6453L932.006 25.6702L931.015 23.1764L933.475 22.1515L931.015 21.0925L932.006 18.5986L929.546 19.6235L928.487 17.1638L927.462 19.6235Z" fill="#5189C9"/>
<path d="M897.53 15.1719L890.5 22.2014L897.53 29.2308L904.559 22.2013L897.53 15.1719Z" fill="#5189C9"/>
<path d="M835.553 -25.9112L818.451 -8.80859L835.553 8.29399L852.656 -8.80863L835.553 -25.9112Z" fill="#D78D00"/>
<path d="M835.527 -20.757L823.69 -8.92041L835.527 2.91615L847.363 -8.92045L835.527 -20.757Z" fill="#4A61AB"/>
<path d="M897.49 -25.909L880.387 -8.8064L897.49 8.29619L914.593 -8.80643L897.49 -25.909Z" fill="#D78D00"/>
<path d="M897.479 -20.7265L885.642 -8.88989L897.479 2.94666L909.315 -8.88993L897.479 -20.7265Z" fill="#4A61AB"/>
<path d="M959.463 -25.9099L942.36 -8.80737L959.463 8.29522L976.566 -8.80726L959.463 -25.9099Z" fill="#D78D00"/>
<path d="M959.396 -20.756L947.56 -8.91943L959.396 2.91712L971.233 -8.91947L959.396 -20.756Z" fill="#4A61AB"/>
<path d="M773.616 -25.9144L756.513 -8.81177L773.616 8.29082L790.719 -8.8118L773.616 -25.9144Z" fill="#D78D00"/>
<path d="M773.608 -20.7294L761.771 -8.89282L773.608 2.94373L785.444 -8.89286L773.608 -20.7294Z" fill="#4A61AB"/>
<path d="M887.8 22.1516L881.583 28.3691V37.183H872.769L866.551 43.4006L860.334 37.183H851.52V28.3691L845.302 22.1516L851.52 15.934V7.12016H860.334L866.551 0.902588L872.769 7.12016H881.583V15.934L887.8 22.1516ZM878.542 34.1426V27.1051L883.496 22.1516L878.542 17.198V10.1606H871.505L866.551 5.20708L861.597 10.1606H854.56V17.198L849.607 22.1516L854.56 27.1051V34.1426H861.597L866.551 39.0961L871.505 34.1426H878.542Z" fill="#4A61AB"/>
<path d="M878.337 22.1515L874.886 25.2945V29.7356H870.001L866.551 32.8785L863.135 29.7697L863.1 29.7356H858.215V25.2945L854.765 22.1515L858.215 19.0086V14.5675H863.1L866.551 11.4246L869.967 14.5333L870.001 14.5675H874.886V19.0086L878.337 22.1515Z" fill="#242466"/>
<path d="M865.526 19.6235L863.032 18.5986L864.057 21.0925L861.564 22.1515L864.057 23.1764L863.032 25.6702L865.526 24.6453L866.551 27.105L867.61 24.6453L870.07 25.6702L869.079 23.1764L871.539 22.1515L869.079 21.0925L870.07 18.5986L867.61 19.6235L866.551 17.1638L865.526 19.6235Z" fill="#5189C9"/>
<path d="M835.564 15.1182L828.534 22.1477L835.564 29.1771L842.593 22.1476L835.564 15.1182Z" fill="#5189C9"/>
<path d="M825.863 22.1516L819.646 28.3691V37.183H810.832L804.614 43.4006L798.397 37.183H789.583V28.3691L783.365 22.1516L789.583 15.934V7.12016H798.397L804.614 0.902588L810.832 7.12016H819.646V15.934L825.863 22.1516ZM816.605 34.1426V27.1051L821.559 22.1516L816.605 17.198V10.1606H809.568L804.614 5.20708L799.661 10.1606H792.623V17.198L787.67 22.1516L792.623 27.1051V34.1426H799.661L804.614 39.0961L809.568 34.1426H816.605Z" fill="#4A61AB"/>
<path d="M816.401 22.1515L812.95 25.2945V29.7356H808.065L804.615 32.8785L801.198 29.7697L801.164 29.7356H796.279V25.2945L792.828 22.1515L796.279 19.0086V14.5675H801.164L804.615 11.4246L808.031 14.5333L808.065 14.5675H812.95V19.0086L816.401 22.1515Z" fill="#242466"/>
<path d="M803.589 19.6235L801.096 18.5986L802.121 21.0925L799.627 22.1515L802.121 23.1764L801.096 25.6702L803.589 24.6453L804.614 27.105L805.639 24.6453L808.133 25.6702L807.108 23.1764L809.602 22.1515L807.108 21.0925L808.133 18.5986L805.639 19.6235L804.614 17.1638L803.589 19.6235Z" fill="#5189C9"/>
<path d="M773.626 15.1154L766.597 22.1448L773.626 29.1742L780.656 22.1448L773.626 15.1154Z" fill="#5189C9"/>
</g>
<mask id="mask4_177_11269" style="mask-type:luminance" maskUnits="userSpaceOnUse" x="958" y="-197" width="500" height="222">
<path d="M1458 -197H958V24.6452H1458V-197Z" fill="white"/>
</mask>
<g mask="url(#mask4_177_11269)">
<path d="M1458 -197H958V24.6452H1458V-197Z" fill="white"/>
</g>
<mask id="mask5_177_11269" style="mask-type:luminance" maskUnits="userSpaceOnUse" x="958" y="-197" width="500" height="222">
<path d="M1458 -197H958V24.6452H1458V-197Z" fill="white"/>
</mask>
<g mask="url(#mask5_177_11269)">
<path d="M1259.93 22.1528L1253.71 28.3704V37.1843H1244.9L1238.68 43.4018L1232.46 37.1843H1223.65V28.3704L1217.43 22.1528L1223.65 15.9353V7.12138H1232.46L1238.68 0.903809L1244.9 7.12138H1253.71V15.9353L1259.93 22.1528ZM1250.67 34.1438V27.1063L1255.62 22.1528L1250.67 17.1993V10.1618H1243.63L1238.68 5.2083L1233.72 10.1618H1226.69V17.1993L1221.73 22.1528L1226.69 27.1063V34.1438H1233.72L1238.68 39.0973L1243.63 34.1438H1250.67Z" fill="#4A61AB"/>
<path d="M1250.46 22.1525L1247.01 25.2954V29.7366H1242.13L1238.68 32.8795L1235.26 29.7707L1235.23 29.7366H1230.34V25.2954L1226.89 22.1525L1230.34 19.0096V14.5685H1235.23L1238.68 11.4255L1242.09 14.5343L1242.13 14.5685H1247.01V19.0096L1250.46 22.1525Z" fill="#242466"/>
<path d="M1237.62 19.6247L1235.16 18.5999L1236.15 21.0937L1233.69 22.1527L1236.15 23.1776L1235.16 25.6714L1237.62 24.6465L1238.68 27.1062L1239.7 24.6465L1242.2 25.6714L1241.17 23.1776L1243.63 22.1527L1241.17 21.0937L1242.2 18.5999L1239.7 19.6247L1238.68 17.165L1237.62 19.6247Z" fill="#5189C9"/>
<path d="M1207.69 15.1798L1200.66 22.2092L1207.69 29.2387L1214.72 22.2093L1207.69 15.1798Z" fill="#5189C9"/>
<path d="M1269.62 15.1115L1262.6 22.1409L1269.62 29.1703L1276.65 22.1409L1269.62 15.1115Z" fill="#5189C9"/>
<path d="M1197.96 22.1528L1191.74 28.3704V37.1843H1182.92L1176.71 43.4018L1170.49 37.1843H1161.68V28.3704L1155.46 22.1528L1161.68 15.9353V7.12138H1170.49L1176.71 0.903809L1182.92 7.12138H1191.74V15.9353L1197.96 22.1528ZM1188.73 34.1438V27.1063L1193.69 22.1528L1188.73 17.1993V10.1618H1181.7L1176.74 5.2083L1171.79 10.1618H1164.75V17.1993L1159.8 22.1528L1164.75 27.1063V34.1438H1171.79L1176.74 39.0973L1181.7 34.1438H1188.73Z" fill="#4A61AB"/>
<path d="M1188.53 22.1525L1185.08 25.2954V29.7366H1180.19L1176.74 32.8795L1173.33 29.7707L1173.29 29.7366H1168.41V25.2954L1164.96 22.1525L1168.41 19.0096V14.5685H1173.29L1176.74 11.4255L1180.16 14.5343L1180.19 14.5685H1185.08V19.0096L1188.53 22.1525Z" fill="#242466"/>
<path d="M1175.68 19.6247L1173.22 18.5999L1174.21 21.0937L1171.75 22.1527L1174.21 23.1776L1173.22 25.6714L1175.68 24.6465L1176.74 27.1062L1177.77 24.6465L1180.26 25.6714L1179.24 23.1776L1181.7 22.1527L1179.24 21.0937L1180.26 18.5999L1177.77 19.6247L1176.74 17.165L1175.68 19.6247Z" fill="#5189C9"/>
<path d="M1145.75 15.1762L1138.72 22.2056L1145.75 29.235L1152.78 22.2056L1145.75 15.1762Z" fill="#5189C9"/>
<path d="M1136.02 22.1528L1129.8 28.3704V37.1843H1120.99L1114.77 43.4018L1108.55 37.1843H1099.74V28.3704L1093.52 22.1528L1099.74 15.9353V7.12138H1108.55L1114.77 0.903809L1120.99 7.12138H1129.8V15.9353L1136.02 22.1528ZM1126.8 34.1438V27.1063L1131.75 22.1528L1126.8 17.1993V10.1618H1119.76L1114.81 5.2083L1109.85 10.1618H1102.81V17.1993L1097.83 22.1528L1102.78 27.1063V34.1438H1109.82L1114.77 39.0973L1119.72 34.1438H1126.8Z" fill="#4A61AB"/>
<path d="M1126.59 22.1525L1123.14 25.2954V29.7366H1118.26L1114.81 32.8795L1111.39 29.7707L1111.35 29.7366H1106.47V25.2954L1103.02 22.1525L1106.47 19.0096V14.5685H1111.35L1114.81 11.4255L1118.22 14.5343L1118.26 14.5685H1123.14V19.0096L1126.59 22.1525Z" fill="#242466"/>
<path d="M1113.75 19.6247L1111.25 18.5999L1112.28 21.0937L1109.82 22.1527L1112.28 23.1776L1111.25 25.6714L1113.75 24.6465L1114.81 27.1062L1115.83 24.6465L1118.32 25.6714L1117.3 23.1776L1119.76 22.1527L1117.3 21.0937L1118.32 18.5999L1115.83 19.6247L1114.81 17.165L1113.75 19.6247Z" fill="#5189C9"/>
<path d="M1083.81 15.1715L1076.78 22.2009L1083.81 29.2304L1090.84 22.201L1083.81 15.1715Z" fill="#5189C9"/>
<path d="M1021.87 -25.9305L1004.76 -8.82788L1021.87 8.27471L1038.97 -8.82792L1021.87 -25.9305Z" fill="#D78D00"/>
<path d="M1021.84 -20.7161L1010 -8.87964L1021.84 2.95692L1033.67 -8.87953L1021.84 -20.7161Z" fill="#4A61AB"/>
<path d="M1083.81 -25.9098L1066.71 -8.80713L1083.81 8.29546L1100.92 -8.80717L1083.81 -25.9098Z" fill="#D78D00"/>
<path d="M1083.76 -20.7415L1071.92 -8.90503L1083.76 2.93153L1095.6 -8.90492L1083.76 -20.7415Z" fill="#4A61AB"/>
<path d="M1145.74 -25.9254L1128.64 -8.82275L1145.74 8.27983L1162.84 -8.82279L1145.74 -25.9254Z" fill="#D78D00"/>
<path d="M1145.71 -20.7139L1133.87 -8.87744L1145.71 2.95912L1157.55 -8.87733L1145.71 -20.7139Z" fill="#4A61AB"/>
<path d="M1207.68 -25.9234L1190.57 -8.8208L1207.68 8.28179L1224.78 -8.82084L1207.68 -25.9234Z" fill="#D78D00"/>
<path d="M1207.63 -20.7407L1195.79 -8.9043L1207.63 2.93226L1219.47 -8.90419L1207.63 -20.7407Z" fill="#4A61AB"/>
<path d="M1269.62 -25.901L1252.52 -8.79834L1269.62 8.30425L1286.73 -8.79838L1269.62 -25.901Z" fill="#D78D00"/>
<path d="M1269.58 -20.7114L1257.74 -8.875L1269.58 2.96156L1281.42 -8.87489L1269.58 -20.7114Z" fill="#4A61AB"/>
<path d="M959.905 -25.9091L942.802 -8.80664L959.905 8.29595L977.007 -8.80653L959.905 -25.9091Z" fill="#D78D00"/>
<path d="M959.89 -20.7428L948.053 -8.90625L959.89 2.93031L971.726 -8.90629L959.89 -20.7428Z" fill="#4A61AB"/>
<path d="M1074.08 22.1528L1067.87 28.3704V37.1843H1059.05L1052.83 43.4018L1046.62 37.1843H1037.8V28.3704L1031.59 22.1528L1037.8 15.9353V7.12138H1046.62L1052.83 0.903809L1059.05 7.12138H1067.87V15.9353L1074.08 22.1528ZM1064.83 34.1438V27.1063L1069.78 22.1528L1064.83 17.1993V10.1618H1057.79L1052.83 5.2083L1047.88 10.1618H1040.84V17.1993L1035.89 22.1528L1040.84 27.1063V34.1438H1047.88L1052.83 39.0973L1057.79 34.1438H1064.83Z" fill="#4A61AB"/>
<path d="M1064.62 22.1525L1061.17 25.2954V29.7366H1056.29L1052.83 32.8795L1049.42 29.7707L1049.38 29.7366H1044.5V25.2954L1041.05 22.1525L1044.5 19.0096V14.5685H1049.38L1052.83 11.4255L1056.25 14.5343L1056.29 14.5685H1061.17V19.0096L1064.62 22.1525Z" fill="#242466"/>
<path d="M1051.81 19.6247L1049.32 18.5999L1050.34 21.0937L1047.88 22.1527L1050.34 23.1776L1049.32 25.6714L1051.81 24.6465L1052.83 27.1062L1053.89 24.6465L1056.35 25.6714L1055.36 23.1776L1057.82 22.1527L1055.36 21.0937L1056.35 18.5999L1053.89 19.6247L1052.83 17.165L1051.81 19.6247Z" fill="#5189C9"/>
<path d="M1021.85 15.1237L1014.82 22.1531L1021.85 29.1825L1028.88 22.1531L1021.85 15.1237Z" fill="#5189C9"/>
<path d="M1012.15 22.1528L1005.93 28.3704V37.1843H997.116L990.899 43.4018L984.681 37.1843H975.867V28.3704L969.65 22.1528L975.867 15.9353V7.12138H984.681L990.899 0.903809L997.116 7.12138H1005.93V15.9353L1012.15 22.1528ZM1002.89 34.1438V27.1063L1007.84 22.1528L1002.89 17.1993V10.1618H995.852L990.899 5.2083L985.945 10.1618H978.908V17.1993L973.954 22.1528L978.908 27.1063V34.1438H985.945L990.899 39.0973L995.852 34.1438H1002.89Z" fill="#4A61AB"/>
<path d="M1002.68 22.1525L999.234 25.2954V29.7366H994.349L990.899 32.8795L987.482 29.7707L987.448 29.7366H982.563V25.2954L979.113 22.1525L982.563 19.0096V14.5685H987.448L990.899 11.4255L994.315 14.5343L994.349 14.5685H999.234V19.0096L1002.68 22.1525Z" fill="#242466"/>
<path d="M989.874 19.6247L987.38 18.5999L988.405 21.0937L985.945 22.1527L988.405 23.1776L987.38 25.6714L989.874 24.6465L990.899 27.1062L991.958 24.6465L994.417 25.6714L993.427 23.1776L995.886 22.1527L993.427 21.0937L994.417 18.5999L991.958 19.6247L990.899 17.165L989.874 19.6247Z" fill="#5189C9"/>
<path d="M959.916 15.1201L952.886 22.1497L959.916 29.1791L966.945 22.1495L959.916 15.1201Z" fill="#5189C9"/>
<path d="M1455.44 15.124L1448.41 22.1536L1455.44 29.183L1462.47 22.1535L1455.44 15.124Z" fill="#5189C9"/>
<path d="M1445.74 22.1516L1439.52 28.3691V37.183H1430.7L1424.49 43.4006L1418.27 37.183H1409.46V28.3691L1403.24 22.1516L1409.46 15.934V7.12016H1418.27L1424.49 0.902588L1430.7 7.12016H1439.52V15.934L1445.74 22.1516ZM1436.48 34.1426V27.1051L1441.43 22.1516L1436.48 17.198V10.1606H1429.44L1424.49 5.20708L1419.53 10.1606H1412.5V17.198L1407.54 22.1516L1412.5 27.1051V34.1426H1419.53L1424.49 39.0961L1429.44 34.1426H1436.48Z" fill="#4A61AB"/>
<path d="M1436.27 22.1515L1432.82 25.2945V29.7356H1427.94L1424.49 32.8785L1421.07 29.7697L1421.04 29.7356H1416.15V25.2945L1412.7 22.1515L1416.15 19.0086V14.5675H1421.04L1424.49 11.4246L1427.9 14.5333L1427.94 14.5675H1432.82V19.0086L1436.27 22.1515Z" fill="#242466"/>
<path d="M1423.46 19.6235L1420.97 18.5986L1421.99 21.0925L1419.53 22.1515L1421.99 23.1764L1420.97 25.6702L1423.46 24.6453L1424.49 27.105L1425.55 24.6453L1428.01 25.6702L1427.02 23.1764L1429.47 22.1515L1427.02 21.0925L1428.01 18.5986L1425.55 19.6235L1424.49 17.1638L1423.46 19.6235Z" fill="#5189C9"/>
<path d="M1393.53 15.1719L1386.5 22.2014L1393.53 29.2308L1400.56 22.2013L1393.53 15.1719Z" fill="#5189C9"/>
<path d="M1331.55 -25.9112L1314.45 -8.80859L1331.55 8.29399L1348.66 -8.80863L1331.55 -25.9112Z" fill="#D78D00"/>
<path d="M1331.53 -20.757L1319.69 -8.92041L1331.53 2.91615L1343.36 -8.92045L1331.53 -20.757Z" fill="#4A61AB"/>
<path d="M1393.49 -25.909L1376.39 -8.8064L1393.49 8.29619L1410.59 -8.80643L1393.49 -25.909Z" fill="#D78D00"/>
<path d="M1393.48 -20.7265L1381.64 -8.88989L1393.48 2.94666L1405.32 -8.88993L1393.48 -20.7265Z" fill="#4A61AB"/>
<path d="M1455.46 -25.9099L1438.36 -8.80737L1455.46 8.29522L1472.57 -8.80726L1455.46 -25.9099Z" fill="#D78D00"/>
<path d="M1455.4 -20.756L1443.56 -8.91943L1455.4 2.91712L1467.23 -8.91947L1455.4 -20.756Z" fill="#4A61AB"/>
<path d="M1269.62 -25.9144L1252.51 -8.81177L1269.62 8.29082L1286.72 -8.8118L1269.62 -25.9144Z" fill="#D78D00"/>
<path d="M1269.61 -20.7294L1257.77 -8.89282L1269.61 2.94373L1281.44 -8.89286L1269.61 -20.7294Z" fill="#4A61AB"/>
<path d="M1383.8 22.1516L1377.58 28.3691V37.183H1368.77L1362.55 43.4006L1356.33 37.183H1347.52V28.3691L1341.3 22.1516L1347.52 15.934V7.12016H1356.33L1362.55 0.902588L1368.77 7.12016H1377.58V15.934L1383.8 22.1516ZM1374.54 34.1426V27.1051L1379.5 22.1516L1374.54 17.198V10.1606H1367.5L1362.55 5.20708L1357.6 10.1606H1350.56V17.198L1345.61 22.1516L1350.56 27.1051V34.1426H1357.6L1362.55 39.0961L1367.5 34.1426H1374.54Z" fill="#4A61AB"/>
<path d="M1374.34 22.1515L1370.89 25.2945V29.7356H1366L1362.55 32.8785L1359.13 29.7697L1359.1 29.7356H1354.22V25.2945L1350.76 22.1515L1354.22 19.0086V14.5675H1359.1L1362.55 11.4246L1365.97 14.5333L1366 14.5675H1370.89V19.0086L1374.34 22.1515Z" fill="#242466"/>
<path d="M1361.53 19.6235L1359.03 18.5986L1360.06 21.0925L1357.56 22.1515L1360.06 23.1764L1359.03 25.6702L1361.53 24.6453L1362.55 27.105L1363.61 24.6453L1366.07 25.6702L1365.08 23.1764L1367.54 22.1515L1365.08 21.0925L1366.07 18.5986L1363.61 19.6235L1362.55 17.1638L1361.53 19.6235Z" fill="#5189C9"/>
<path d="M1331.56 15.1182L1324.53 22.1477L1331.56 29.1771L1338.59 22.1476L1331.56 15.1182Z" fill="#5189C9"/>
<path d="M1321.86 22.1516L1315.65 28.3691V37.183H1306.83L1300.61 43.4006L1294.4 37.183H1285.58V28.3691L1279.37 22.1516L1285.58 15.934V7.12016H1294.4L1300.61 0.902588L1306.83 7.12016H1315.65V15.934L1321.86 22.1516ZM1312.61 34.1426V27.1051L1317.56 22.1516L1312.61 17.198V10.1606H1305.57L1300.61 5.20708L1295.66 10.1606H1288.62V17.198L1283.67 22.1516L1288.62 27.1051V34.1426H1295.66L1300.61 39.0961L1305.57 34.1426H1312.61Z" fill="#4A61AB"/>
<path d="M1312.4 22.1515L1308.95 25.2945V29.7356H1304.06L1300.61 32.8785L1297.2 29.7697L1297.16 29.7356H1292.28V25.2945L1288.83 22.1515L1292.28 19.0086V14.5675H1297.16L1300.61 11.4246L1304.03 14.5333L1304.06 14.5675H1308.95V19.0086L1312.4 22.1515Z" fill="#242466"/>
<path d="M1299.59 19.6235L1297.1 18.5986L1298.12 21.0925L1295.63 22.1515L1298.12 23.1764L1297.1 25.6702L1299.59 24.6453L1300.61 27.105L1301.64 24.6453L1304.13 25.6702L1303.11 23.1764L1305.6 22.1515L1303.11 21.0925L1304.13 18.5986L1301.64 19.6235L1300.61 17.1638L1299.59 19.6235Z" fill="#5189C9"/>
<path d="M1269.63 15.1154L1262.6 22.1448L1269.63 29.1742L1276.66 22.1448L1269.63 15.1154Z" fill="#5189C9"/>
</g>
<mask id="mask6_177_11269" style="mask-type:luminance" maskUnits="userSpaceOnUse" x="1454" y="-197" width="500" height="222">
<path d="M1954 -197H1454V24.6452H1954V-197Z" fill="white"/>
</mask>
<g mask="url(#mask6_177_11269)">
<path d="M1954 -197H1454V24.6452H1954V-197Z" fill="white"/>
</g>
<mask id="mask7_177_11269" style="mask-type:luminance" maskUnits="userSpaceOnUse" x="1454" y="-197" width="500" height="222">
<path d="M1954 -197H1454V24.6452H1954V-197Z" fill="white"/>
</mask>
<g mask="url(#mask7_177_11269)">
<path d="M1755.93 22.153L1749.71 28.3706V37.1845H1740.9L1734.68 43.402L1728.46 37.1845H1719.65V28.3706L1713.43 22.153L1719.65 15.9355V7.12162H1728.46L1734.68 0.904053L1740.9 7.12162H1749.71V15.9355L1755.93 22.153ZM1746.67 34.1441V27.1066L1751.62 22.153L1746.67 17.1995V10.1621H1739.63L1734.68 5.20854L1729.72 10.1621H1722.69V17.1995L1717.73 22.153L1722.69 27.1066V34.1441H1729.72L1734.68 39.0976L1739.63 34.1441H1746.67Z" fill="#4A61AB"/>
<path d="M1746.46 22.1528L1743.01 25.2957V29.7368H1738.13L1734.68 32.8797L1731.26 29.7709L1731.23 29.7368H1726.34V25.2957L1722.89 22.1528L1726.34 19.0098V14.5687H1731.23L1734.68 11.4258L1738.09 14.5346L1738.13 14.5687H1743.01V19.0098L1746.46 22.1528Z" fill="#242466"/>
<path d="M1733.62 19.625L1731.16 18.6001L1732.15 21.0939L1729.69 22.153L1732.15 23.1778L1731.16 25.6717L1733.62 24.6468L1734.68 27.1065L1735.7 24.6468L1738.2 25.6717L1737.17 23.1778L1739.63 22.153L1737.17 21.0939L1738.2 18.6001L1735.7 19.625L1734.68 17.1653L1733.62 19.625Z" fill="#5189C9"/>
<path d="M1703.69 15.1801L1696.66 22.2095L1703.69 29.2389L1710.72 22.2095L1703.69 15.1801Z" fill="#5189C9"/>
<path d="M1765.62 15.1117L1758.6 22.1411L1765.62 29.1705L1772.65 22.1412L1765.62 15.1117Z" fill="#5189C9"/>
<path d="M1693.96 22.153L1687.74 28.3706V37.1845H1678.92L1672.71 43.402L1666.49 37.1845H1657.68V28.3706L1651.46 22.153L1657.68 15.9355V7.12162H1666.49L1672.71 0.904053L1678.92 7.12162H1687.74V15.9355L1693.96 22.153ZM1684.73 34.1441V27.1066L1689.69 22.153L1684.73 17.1995V10.1621H1677.7L1672.74 5.20854L1667.79 10.1621H1660.75V17.1995L1655.8 22.153L1660.75 27.1066V34.1441H1667.79L1672.74 39.0976L1677.7 34.1441H1684.73Z" fill="#4A61AB"/>
<path d="M1684.53 22.1528L1681.08 25.2957V29.7368H1676.19L1672.74 32.8797L1669.33 29.7709L1669.29 29.7368H1664.41V25.2957L1660.96 22.1528L1664.41 19.0098V14.5687H1669.29L1672.74 11.4258L1676.16 14.5346L1676.19 14.5687H1681.08V19.0098L1684.53 22.1528Z" fill="#242466"/>
<path d="M1671.68 19.625L1669.22 18.6001L1670.21 21.0939L1667.75 22.153L1670.21 23.1778L1669.22 25.6717L1671.68 24.6468L1672.74 27.1065L1673.77 24.6468L1676.26 25.6717L1675.24 23.1778L1677.7 22.153L1675.24 21.0939L1676.26 18.6001L1673.77 19.625L1672.74 17.1653L1671.68 19.625Z" fill="#5189C9"/>
<path d="M1641.75 15.1764L1634.72 22.2058L1641.75 29.2352L1648.78 22.2058L1641.75 15.1764Z" fill="#5189C9"/>
<path d="M1632.02 22.153L1625.8 28.3706V37.1845H1616.99L1610.77 43.402L1604.55 37.1845H1595.74V28.3706L1589.52 22.153L1595.74 15.9355V7.12162H1604.55L1610.77 0.904053L1616.99 7.12162H1625.8V15.9355L1632.02 22.153ZM1622.8 34.1441V27.1066L1627.75 22.153L1622.8 17.1995V10.1621H1615.76L1610.81 5.20854L1605.85 10.1621H1598.81V17.1995L1593.83 22.153L1598.78 27.1066V34.1441H1605.82L1610.77 39.0976L1615.72 34.1441H1622.8Z" fill="#4A61AB"/>
<path d="M1622.59 22.1528L1619.14 25.2957V29.7368H1614.26L1610.81 32.8797L1607.39 29.7709L1607.36 29.7368H1602.47V25.2957L1599.02 22.1528L1602.47 19.0098V14.5687H1607.36L1610.81 11.4258L1614.22 14.5346L1614.26 14.5687H1619.14V19.0098L1622.59 22.1528Z" fill="#242466"/>
<path d="M1609.75 19.625L1607.25 18.6001L1608.28 21.0939L1605.82 22.153L1608.28 23.1778L1607.25 25.6717L1609.75 24.6468L1610.81 27.1065L1611.83 24.6468L1614.32 25.6717L1613.3 23.1778L1615.76 22.153L1613.3 21.0939L1614.32 18.6001L1611.83 19.625L1610.81 17.1653L1609.75 19.625Z" fill="#5189C9"/>
<path d="M1579.81 15.1718L1572.78 22.2012L1579.81 29.2306L1586.84 22.2012L1579.81 15.1718Z" fill="#5189C9"/>
<path d="M1517.87 -25.9303L1500.76 -8.82764L1517.87 8.27495L1534.97 -8.82767L1517.87 -25.9303Z" fill="#D78D00"/>
<path d="M1517.84 -20.7158L1506 -8.87939L1517.84 2.95716L1529.67 -8.87928L1517.84 -20.7158Z" fill="#4A61AB"/>
<path d="M1579.81 -25.9093L1562.71 -8.80664L1579.81 8.29595L1596.92 -8.80668L1579.81 -25.9093Z" fill="#D78D00"/>
<path d="M1579.76 -20.7412L1567.92 -8.90479L1579.76 2.93177L1591.6 -8.90467L1579.76 -20.7412Z" fill="#4A61AB"/>
<path d="M1641.74 -25.9251L1624.64 -8.82251L1641.74 8.28008L1658.84 -8.82255L1641.74 -25.9251Z" fill="#D78D00"/>
<path d="M1641.71 -20.7136L1629.87 -8.8772L1641.71 2.95936L1653.55 -8.87709L1641.71 -20.7136Z" fill="#4A61AB"/>
<path d="M1703.68 -25.9232L1686.57 -8.82056L1703.68 8.28203L1720.78 -8.82059L1703.68 -25.9232Z" fill="#D78D00"/>
<path d="M1703.63 -20.7403L1691.79 -8.90381L1703.63 2.93275L1715.47 -8.9037L1703.63 -20.7403Z" fill="#4A61AB"/>
<path d="M1765.62 -25.9007L1748.52 -8.7981L1765.62 8.30449L1782.73 -8.79813L1765.62 -25.9007Z" fill="#D78D00"/>
<path d="M1765.58 -20.7112L1753.74 -8.87476L1765.58 2.9618L1777.42 -8.87465L1765.58 -20.7112Z" fill="#4A61AB"/>
<path d="M1455.9 -25.9089L1438.8 -8.8064L1455.9 8.29619L1473.01 -8.80629L1455.9 -25.9089Z" fill="#D78D00"/>
<path d="M1455.89 -20.7426L1444.05 -8.90601L1455.89 2.93055L1467.73 -8.90604L1455.89 -20.7426Z" fill="#4A61AB"/>
<path d="M1570.08 22.153L1563.87 28.3706V37.1845H1555.05L1548.83 43.402L1542.62 37.1845H1533.8V28.3706L1527.59 22.153L1533.8 15.9355V7.12162H1542.62L1548.83 0.904053L1555.05 7.12162H1563.87V15.9355L1570.08 22.153ZM1560.83 34.1441V27.1066L1565.78 22.153L1560.83 17.1995V10.1621H1553.79L1548.83 5.20854L1543.88 10.1621H1536.84V17.1995L1531.89 22.153L1536.84 27.1066V34.1441H1543.88L1548.83 39.0976L1553.79 34.1441H1560.83Z" fill="#4A61AB"/>
<path d="M1560.62 22.1528L1557.17 25.2957V29.7368H1552.29L1548.83 32.8797L1545.42 29.7709L1545.38 29.7368H1540.5V25.2957L1537.05 22.1528L1540.5 19.0098V14.5687H1545.38L1548.83 11.4258L1552.25 14.5346L1552.29 14.5687H1557.17V19.0098L1560.62 22.1528Z" fill="#242466"/>
<path d="M1547.81 19.625L1545.32 18.6001L1546.34 21.0939L1543.88 22.153L1546.34 23.1778L1545.32 25.6717L1547.81 24.6468L1548.83 27.1065L1549.89 24.6468L1552.35 25.6717L1551.36 23.1778L1553.82 22.153L1551.36 21.0939L1552.35 18.6001L1549.89 19.625L1548.83 17.1653L1547.81 19.625Z" fill="#5189C9"/>
<path d="M1517.85 15.1239L1510.82 22.1533L1517.85 29.1827L1524.88 22.1534L1517.85 15.1239Z" fill="#5189C9"/>
<path d="M1508.15 22.153L1501.93 28.3706V37.1845H1493.12L1486.9 43.402L1480.68 37.1845H1471.87V28.3706L1465.65 22.153L1471.87 15.9355V7.12162H1480.68L1486.9 0.904053L1493.12 7.12162H1501.93V15.9355L1508.15 22.153ZM1498.89 34.1441V27.1066L1503.84 22.153L1498.89 17.1995V10.1621H1491.85L1486.9 5.20854L1481.95 10.1621H1474.91V17.1995L1469.95 22.153L1474.91 27.1066V34.1441H1481.95L1486.9 39.0976L1491.85 34.1441H1498.89Z" fill="#4A61AB"/>
<path d="M1498.68 22.1528L1495.23 25.2957V29.7368H1490.35L1486.9 32.8797L1483.48 29.7709L1483.45 29.7368H1478.56V25.2957L1475.11 22.1528L1478.56 19.0098V14.5687H1483.45L1486.9 11.4258L1490.31 14.5346L1490.35 14.5687H1495.23V19.0098L1498.68 22.1528Z" fill="#242466"/>
<path d="M1485.87 19.625L1483.38 18.6001L1484.4 21.0939L1481.95 22.153L1484.4 23.1778L1483.38 25.6717L1485.87 24.6468L1486.9 27.1065L1487.96 24.6468L1490.42 25.6717L1489.43 23.1778L1491.89 22.153L1489.43 21.0939L1490.42 18.6001L1487.96 19.625L1486.9 17.1653L1485.87 19.625Z" fill="#5189C9"/>
<path d="M1455.92 15.1204L1448.89 22.1499L1455.92 29.1793L1462.95 22.1498L1455.92 15.1204Z" fill="#5189C9"/>
<path d="M1941.74 22.1516L1935.52 28.3691V37.183H1926.7L1920.49 43.4006L1914.27 37.183H1905.46V28.3691L1899.24 22.1516L1905.46 15.934V7.12016H1914.27L1920.49 0.902588L1926.7 7.12016H1935.52V15.934L1941.74 22.1516ZM1932.48 34.1426V27.1051L1937.43 22.1516L1932.48 17.198V10.1606H1925.44L1920.49 5.20708L1915.53 10.1606H1908.5V17.198L1903.54 22.1516L1908.5 27.1051V34.1426H1915.53L1920.49 39.0961L1925.44 34.1426H1932.48Z" fill="#4A61AB"/>
<path d="M1932.27 22.1515L1928.82 25.2945V29.7356H1923.94L1920.49 32.8785L1917.07 29.7697L1917.04 29.7356H1912.15V25.2945L1908.7 22.1515L1912.15 19.0086V14.5675H1917.04L1920.49 11.4246L1923.9 14.5333L1923.94 14.5675H1928.82V19.0086L1932.27 22.1515Z" fill="#242466"/>
<path d="M1919.46 19.6235L1916.97 18.5986L1917.99 21.0925L1915.53 22.1515L1917.99 23.1764L1916.97 25.6702L1919.46 24.6453L1920.49 27.105L1921.55 24.6453L1924.01 25.6702L1923.02 23.1764L1925.47 22.1515L1923.02 21.0925L1924.01 18.5986L1921.55 19.6235L1920.49 17.1638L1919.46 19.6235Z" fill="#5189C9"/>
<path d="M1889.53 15.1719L1882.5 22.2014L1889.53 29.2308L1896.56 22.2013L1889.53 15.1719Z" fill="#5189C9"/>
<path d="M1827.55 -25.9112L1810.45 -8.80859L1827.55 8.29399L1844.66 -8.80863L1827.55 -25.9112Z" fill="#D78D00"/>
<path d="M1827.53 -20.757L1815.69 -8.92041L1827.53 2.91615L1839.36 -8.92045L1827.53 -20.757Z" fill="#4A61AB"/>
<path d="M1889.49 -25.909L1872.39 -8.8064L1889.49 8.29619L1906.59 -8.80643L1889.49 -25.909Z" fill="#D78D00"/>
<path d="M1889.48 -20.7265L1877.64 -8.88989L1889.48 2.94666L1901.32 -8.88993L1889.48 -20.7265Z" fill="#4A61AB"/>
<path d="M1765.62 -25.9144L1748.51 -8.81177L1765.62 8.29082L1782.72 -8.8118L1765.62 -25.9144Z" fill="#D78D00"/>
<path d="M1765.61 -20.7294L1753.77 -8.89282L1765.61 2.94373L1777.44 -8.89286L1765.61 -20.7294Z" fill="#4A61AB"/>
<path d="M1879.8 22.1516L1873.58 28.3691V37.183H1864.77L1858.55 43.4006L1852.33 37.183H1843.52V28.3691L1837.3 22.1516L1843.52 15.934V7.12016H1852.33L1858.55 0.902588L1864.77 7.12016H1873.58V15.934L1879.8 22.1516ZM1870.54 34.1426V27.1051L1875.5 22.1516L1870.54 17.198V10.1606H1863.5L1858.55 5.20708L1853.6 10.1606H1846.56V17.198L1841.61 22.1516L1846.56 27.1051V34.1426H1853.6L1858.55 39.0961L1863.5 34.1426H1870.54Z" fill="#4A61AB"/>
<path d="M1870.34 22.1515L1866.89 25.2945V29.7356H1862L1858.55 32.8785L1855.13 29.7697L1855.1 29.7356H1850.22V25.2945L1846.76 22.1515L1850.22 19.0086V14.5675H1855.1L1858.55 11.4246L1861.97 14.5333L1862 14.5675H1866.89V19.0086L1870.34 22.1515Z" fill="#242466"/>
<path d="M1857.53 19.6235L1855.03 18.5986L1856.06 21.0925L1853.56 22.1515L1856.06 23.1764L1855.03 25.6702L1857.53 24.6453L1858.55 27.105L1859.61 24.6453L1862.07 25.6702L1861.08 23.1764L1863.54 22.1515L1861.08 21.0925L1862.07 18.5986L1859.61 19.6235L1858.55 17.1638L1857.53 19.6235Z" fill="#5189C9"/>
<path d="M1827.56 15.1182L1820.53 22.1477L1827.56 29.1771L1834.59 22.1476L1827.56 15.1182Z" fill="#5189C9"/>
<path d="M1817.86 22.1516L1811.65 28.3691V37.183H1802.83L1796.61 43.4006L1790.4 37.183H1781.58V28.3691L1775.37 22.1516L1781.58 15.934V7.12016H1790.4L1796.61 0.902588L1802.83 7.12016H1811.65V15.934L1817.86 22.1516ZM1808.61 34.1426V27.1051L1813.56 22.1516L1808.61 17.198V10.1606H1801.57L1796.61 5.20708L1791.66 10.1606H1784.62V17.198L1779.67 22.1516L1784.62 27.1051V34.1426H1791.66L1796.61 39.0961L1801.57 34.1426H1808.61Z" fill="#4A61AB"/>
<path d="M1808.4 22.1515L1804.95 25.2945V29.7356H1800.06L1796.61 32.8785L1793.2 29.7697L1793.16 29.7356H1788.28V25.2945L1784.83 22.1515L1788.28 19.0086V14.5675H1793.16L1796.61 11.4246L1800.03 14.5333L1800.06 14.5675H1804.95V19.0086L1808.4 22.1515Z" fill="#242466"/>
<path d="M1795.59 19.6235L1793.1 18.5986L1794.12 21.0925L1791.63 22.1515L1794.12 23.1764L1793.1 25.6702L1795.59 24.6453L1796.61 27.105L1797.64 24.6453L1800.13 25.6702L1799.11 23.1764L1801.6 22.1515L1799.11 21.0925L1800.13 18.5986L1797.64 19.6235L1796.61 17.1638L1795.59 19.6235Z" fill="#5189C9"/>
<path d="M1765.63 15.1154L1758.6 22.1448L1765.63 29.1742L1772.66 22.1448L1765.63 15.1154Z" fill="#5189C9"/>
</g>
</svg>
