<svg width="16" height="19" viewBox="0 0 16 19" fill="none" xmlns="http://www.w3.org/2000/svg">
<path d="M13.657 14.1567L9.414 18.3997C9.03899 18.7743 8.53059 18.9848 8.0005 18.9848C7.47042 18.9848 6.96202 18.7743 6.587 18.3997L2.343 14.1567C1.22422 13.0379 0.46234 11.6124 0.153691 10.0606C-0.154957 8.50873 0.00349361 6.90022 0.609007 5.43844C1.21452 3.97665 2.2399 2.72725 3.55548 1.84821C4.87107 0.969181 6.41777 0.5 8 0.5C9.58224 0.5 11.1289 0.969181 12.4445 1.84821C13.7601 2.72725 14.7855 3.97665 15.391 5.43844C15.9965 6.90022 16.155 8.50873 15.8463 10.0606C15.5377 11.6124 14.7758 13.0379 13.657 14.1567Z" fill="#13B0A3"/>
<path d="M5 8.5C5 9.29565 5.31607 10.0587 5.87868 10.6213C6.44129 11.1839 7.20435 11.5 8 11.5C8.79565 11.5 9.55871 11.1839 10.1213 10.6213C10.6839 10.0587 11 9.29565 11 8.5C11 7.70435 10.6839 6.94129 10.1213 6.37868C9.55871 5.81607 8.79565 5.5 8 5.5C7.20435 5.5 6.44129 5.81607 5.87868 6.37868C5.31607 6.94129 5 7.70435 5 8.5Z" fill="white"/>
</svg>
