<svg width="24" height="25" viewBox="0 0 24 25" fill="none" xmlns="http://www.w3.org/2000/svg">
<g clip-path="url(#clip0_308_13039)">
<path d="M9 11.5C9 12.2956 9.31607 13.0587 9.87868 13.6213C10.4413 14.1839 11.2044 14.5 12 14.5C12.7956 14.5 13.5587 14.1839 14.1213 13.6213C14.6839 13.0587 15 12.2956 15 11.5C15 10.7044 14.6839 9.94129 14.1213 9.37868C13.5587 8.81607 12.7956 8.5 12 8.5C11.2044 8.5 10.4413 8.81607 9.87868 9.37868C9.31607 9.94129 9 10.7044 9 11.5Z" stroke="#13B0A3" stroke-width="2" stroke-linecap="round" stroke-linejoin="round"/>
<path d="M17.657 17.1567L13.414 21.3997C13.039 21.7743 12.5306 21.9848 12.0005 21.9848C11.4704 21.9848 10.962 21.7743 10.587 21.3997L6.343 17.1567C5.22422 16.0379 4.46234 14.6124 4.15369 13.0606C3.84504 11.5087 4.00349 9.90022 4.60901 8.43844C5.21452 6.97665 6.2399 5.72725 7.55548 4.84821C8.87107 3.96918 10.4178 3.5 12 3.5C13.5822 3.5 15.1289 3.96918 16.4445 4.84821C17.7601 5.72725 18.7855 6.97665 19.391 8.43844C19.9965 9.90022 20.155 11.5087 19.8463 13.0606C19.5377 14.6124 18.7758 16.0379 17.657 17.1567Z" stroke="#13B0A3" stroke-width="2" stroke-linecap="round" stroke-linejoin="round"/>
</g>
<defs>
<clipPath id="clip0_308_13039">
<rect width="24" height="24" fill="white" transform="translate(0 0.5)"/>
</clipPath>
</defs>
</svg>
