<svg width="24" height="25" viewBox="0 0 24 25" fill="none" xmlns="http://www.w3.org/2000/svg">
<g clip-path="url(#clip0_308_13028)">
<path d="M5 4.5H9L11 9.5L8.5 11C9.57096 13.1715 11.3285 14.929 13.5 16L15 13.5L20 15.5V19.5C20 20.0304 19.7893 20.5391 19.4142 20.9142C19.0391 21.2893 18.5304 21.5 18 21.5C14.0993 21.263 10.4202 19.6065 7.65683 16.8432C4.8935 14.0798 3.23705 10.4007 3 6.5C3 5.96957 3.21071 5.46086 3.58579 5.08579C3.96086 4.71071 4.46957 4.5 5 4.5Z" stroke="#13B0A3" stroke-width="2" stroke-linecap="round" stroke-linejoin="round"/>
</g>
<defs>
<clipPath id="clip0_308_13028">
<rect width="24" height="24" fill="white" transform="translate(0 0.5)"/>
</clipPath>
</defs>
</svg>
