<svg width="25" height="50" viewBox="0 0 25 50" fill="none" xmlns="http://www.w3.org/2000/svg">
<g opacity="0.2">
<path d="M25 25L17.6849 32.3151V42.6849H7.31502L0.000123978 50L-7.31502 42.6849H-17.6849V32.3151L-25 25L-17.6849 17.6849V7.31514H-7.31502L0.000123978 0L7.31502 7.31514H17.6849V17.6849L25 25ZM14.1479 39.1078V30.828L19.9759 25L14.1479 19.172V10.8923H5.86813L0.0401096 5.06435L-5.78767 10.8923H-14.0674V19.172L-19.8954 25L-14.0674 30.828V39.1078H-5.78767L0.0401096 44.9357L5.86813 39.1078H14.1479Z" fill="white"/>
<path d="M13.9066 25L9.84703 28.6977V33.9228H4.09947L0.0399446 37.6205L-3.97935 33.963L-4.01933 33.9228H-9.76714V28.6977L-13.8264 25L-9.76714 21.3022V16.0771H-4.01933L0.0399446 12.3794L4.05924 16.037L4.09947 16.0771H9.84703V21.3022L13.9066 25Z" fill="white"/>
<path d="M-1.20609 22.0257L-4.09986 20.8199L-2.93435 23.754L-5.82812 25L-2.93435 26.2058L-4.09986 29.1398L-1.20609 27.934L0.0398841 30.8279L1.24587 27.934L4.17987 29.1398L2.97413 26.2058L5.86791 25L2.97413 23.754L4.17987 20.8199L1.24587 22.0257L0.0398841 19.1318L-1.20609 22.0257Z" fill="#0188CA"/>
</g>
</svg>
